<?xml version="1.0" encoding="utf-8"?>
<!-- Generator: Adobe Illustrator 23.0.6, SVG Export Plug-In . SVG Version: 6.00 Build 0)  -->
<svg version="1.1" xmlns="http://www.w3.org/2000/svg" xmlns:xlink="http://www.w3.org/1999/xlink" x="0px" y="0px"
	 viewBox="0 0 1200 800" style="enable-background:new 0 0 1200 800;" xml:space="preserve">
<style type="text/css">
	.st0{display:none;}
	.st1{display:inline;}
	.st2{fill:#ABD3CB;}
	.st3{opacity:0.1;}
	.st4{fill:#81AE9F;}
	.st5{fill:#F3F1E8;}
	.st6{fill:#FFFFFF;}
	.st7{font-family:'Amatic-Bold';}
	.st8{font-size:156.6661px;}
	.st9{display:none;fill:#5762C4;}
	.st10{display:none;opacity:0.1;}
	.st11{display:inline;fill:#81AE9F;}
	.st12{fill:#322B25;}
</style>
<g id="ARTBOARD_1" class="st0">
	<g class="st1">
		<rect x="-833.45" class="st2" width="800" height="800"/>
		<g class="st3">
			<polygon class="st4" points="-433.68,399.99 -480.64,800 -386.25,800 -433.21,400.01 -433.45,401.99 			"/>
			<polygon class="st4" points="-432.26,390.72 -432.04,389.99 -386.25,0 -480.64,0 -434.38,394.02 -434.3,394.3 			"/>
			<polygon class="st4" points="-433.35,397.52 -432.85,396.88 -432.36,392.72 -433.56,396.8 			"/>
			<polygon class="st4" points="-433.54,398.51 -433.82,398.85 -433.68,399.99 -433.45,401.99 -433.21,400.01 -433.18,399.74 			"/>
			<polygon class="st4" points="-436.79,398.63 -436.83,398.71 -436.41,398.59 			"/>
			<polygon class="st4" points="-666.69,800 -552.32,800 -434.37,399.55 -445.07,413.1 			"/>
			<polygon class="st4" points="-438.03,400.81 -438.58,401.77 -435.8,399.57 			"/>
			<polygon class="st4" points="-432.82,392.65 -432.26,390.72 -434.3,394.3 -433.56,396.8 -432.36,392.72 -431.83,390.92 			"/>
			<polygon class="st4" points="-432.82,392.65 -431.83,390.92 -207.91,0 -317.17,0 -432.04,389.99 -432.26,390.72 			"/>
			<polygon class="st4" points="-432.67,399.84 -433.48,398.42 -433.54,398.51 -433.18,399.74 -315.29,800 -202.92,800 
				-431.7,400.6 -432.89,399.1 			"/>
			<polygon class="st4" points="-433.45,397.64 -433.35,397.52 -433.56,396.8 -434.3,394.3 -434.38,394.02 -550.44,0 -661.7,0 
				-435.21,395.41 			"/>
			<polygon class="st4" points="-432.67,399.84 -432.89,399.1 -433.45,398.38 -433.48,398.42 			"/>
			<polygon class="st4" points="-434.65,398.1 -435.44,398.01 -434.64,397.92 -436.39,397.43 -833.45,350.81 -833.45,445.2 
				-436.79,398.63 -436.41,398.59 			"/>
			<polygon class="st4" points="-33.45,350.82 -430.52,397.43 -432.59,398.01 -430.48,398.59 -33.45,445.2 			"/>
			<polygon class="st4" points="-435.44,398.01 -434.65,398.1 -434.31,398.01 -434.64,397.92 			"/>
			<polygon class="st4" points="-433.48,398.42 -433.45,398.38 -433.49,398.34 -434.85,399.42 -434.34,398.77 -435.8,399.57 
				-438.58,401.77 -833.45,713.66 -833.45,800 -750.67,800 -445.07,413.1 -434.37,399.55 -433.82,398.85 -433.54,398.51 			"/>
			<polygon class="st4" points="-433.45,397.64 -433.39,397.71 -431.07,396.43 -33.45,82.36 -33.45,0 -119.37,0 -432.85,396.88 
				-433.35,397.52 			"/>
			<polygon class="st4" points="-434.34,398.77 -434.85,399.42 -433.49,398.34 -433.51,398.31 			"/>
			<polygon class="st4" points="-434.35,397.24 -434.86,396.61 -433.43,397.73 -433.39,397.71 -433.45,397.64 -435.21,395.41 
				-747.53,0 -833.45,0 -833.45,82.36 -435.82,396.43 			"/>
			<polygon class="st4" points="-433.45,398.27 -433.51,398.31 -433.49,398.34 -433.45,398.38 -432.89,399.1 -431.7,400.6 
				-116.23,800 -33.45,800 -33.45,713.66 -431.1,399.57 			"/>
			<polygon class="st4" points="-434.86,396.61 -434.35,397.24 -433.45,397.74 -433.43,397.73 			"/>
			<polygon class="st4" points="-434.64,397.92 -434.31,398.01 -434.06,397.94 -435.29,397.26 -433.48,397.76 -433.45,397.74 
				-434.35,397.24 -435.82,396.43 -833.45,176.79 -833.45,287.14 -436.39,397.43 			"/>
			<polygon class="st4" points="-432.59,398.01 -433.35,398.22 -433.45,398.27 -431.1,399.57 -33.45,619.23 -33.45,508.88 
				-430.48,398.59 			"/>
			<polygon class="st4" points="-433.48,397.76 -435.29,397.26 -434.06,397.94 -433.54,397.79 			"/>
			<polygon class="st4" points="-433.39,397.71 -433.43,397.73 -433.45,397.74 -433.48,397.76 -433.54,397.79 -431.61,397.26 
				-433.35,398.22 -432.59,398.01 -430.52,397.43 -33.45,287.14 -33.45,176.79 -431.07,396.43 			"/>
			<polygon class="st4" points="-434.34,398.77 -433.51,398.31 -433.45,398.27 -433.35,398.22 -431.61,397.26 -433.54,397.79 
				-434.06,397.94 -434.31,398.01 -434.65,398.1 -436.41,398.59 -436.83,398.71 -833.45,508.88 -833.45,619.23 -438.03,400.81 
				-435.8,399.57 			"/>
		</g>
		<g>
			<g>
				<path class="st5" d="M-404.81,488.97h-81.68c-1.93,0-3.5-1.57-3.5-3.5v-59.53c0-1.93,1.57-3.5,3.5-3.5h81.68
					c1.93,0,3.5,1.57,3.5,3.5v59.53C-401.31,487.4-402.88,488.97-404.81,488.97z M-482.99,481.97h74.68v-52.53h-74.68V481.97z"/>
				<path class="st5" d="M-404.81,441.21h-81.68c-1.93,0-3.5-1.57-3.5-3.5c0-1.93,1.57-3.5,3.5-3.5h81.68c1.93,0,3.5,1.57,3.5,3.5
					C-401.31,439.64-402.88,441.21-404.81,441.21z"/>
				<path class="st5" d="M-404.81,452.28h-81.68c-1.93,0-3.5-1.57-3.5-3.5c0-1.93,1.57-3.5,3.5-3.5h81.68c1.93,0,3.5,1.57,3.5,3.5
					C-401.31,450.72-402.88,452.28-404.81,452.28z"/>
				<path class="st5" d="M-404.81,466.04h-81.68c-1.93,0-3.5-1.57-3.5-3.5c0-1.93,1.57-3.5,3.5-3.5h81.68c1.93,0,3.5,1.57,3.5,3.5
					C-401.31,464.47-402.88,466.04-404.81,466.04z"/>
				<path class="st5" d="M-404.81,477.13h-81.68c-1.93,0-3.5-1.57-3.5-3.5c0-1.93,1.57-3.5,3.5-3.5h81.68c1.93,0,3.5,1.57,3.5,3.5
					C-401.31,475.56-402.88,477.13-404.81,477.13z"/>
			</g>
			<g>
				<path class="st5" d="M-469.45,318.55c-12.15,0-22.03-9.88-22.03-22.03c0-12.15,9.88-22.03,22.03-22.03s22.03,9.88,22.03,22.03
					C-447.42,308.67-457.3,318.55-469.45,318.55z M-469.45,281.5c-8.29,0-15.03,6.74-15.03,15.03c0,8.29,6.74,15.03,15.03,15.03
					c8.29,0,15.03-6.74,15.03-15.03C-454.42,288.24-461.16,281.5-469.45,281.5z"/>
				<path class="st5" d="M-450.92,429.44c-1.93,0-3.5-1.57-3.5-3.5V296.52c0-1.93,1.57-3.5,3.5-3.5c1.93,0,3.5,1.57,3.5,3.5v129.42
					C-447.42,427.87-448.99,429.44-450.92,429.44z"/>
			</g>
			<g>
				<path class="st5" d="M-416.51,318.55c-12.15,0-22.03-9.88-22.03-22.03c0-12.15,9.88-22.03,22.03-22.03
					c12.15,0,22.03,9.88,22.03,22.03C-394.48,308.67-404.36,318.55-416.51,318.55z M-416.51,281.5c-8.29,0-15.03,6.74-15.03,15.03
					c0,8.29,6.74,15.03,15.03,15.03s15.03-6.74,15.03-15.03C-401.48,288.24-408.22,281.5-416.51,281.5z"/>
				<path class="st5" d="M-435.04,429.44c-1.93,0-3.5-1.57-3.5-3.5V296.52c0-1.93,1.57-3.5,3.5-3.5c1.93,0,3.5,1.57,3.5,3.5v129.42
					C-431.54,427.87-433.11,429.44-435.04,429.44z"/>
			</g>
			<g>
				<g>
					<text transform="matrix(0.994 -0.1093 0.1093 0.994 -600.0799 659.6017)" class="st6 st7 st8">quiz time!</text>
				</g>
				<g>
					<path class="st5" d="M-589.07,711.96c-3.96,0-7.9-0.03-11.72-0.08c-22.54-0.3-42.74-10.59-60.06-30.57
						c-17.24-19.82-25.79-44.49-25.4-73.3c0.4-29.32,21.69-54.4,63.27-74.54c40.55-19.67,90.7-33.82,149.06-42.04
						c95.73-13.41,178.26-20.2,245.31-20.2c4.4,0,8.8,0.03,13.08,0.09c22.47,0.3,42.86,10.28,60.62,29.67
						c17.72,19.31,26.51,44,26.11,73.37c-0.4,29.85-21.92,55.23-63.94,75.42c-40.22,19.69-90.59,33.83-149.68,42.03
						C-442.19,705.18-525.17,711.96-589.07,711.96z M-228.6,478.23c-66.73,0-148.94,6.77-244.34,20.13
						c-57.64,8.12-107.09,22.05-146.98,41.41c-39.01,18.89-58.97,41.89-59.33,68.34c-0.36,27.04,7.61,50.12,23.69,68.61
						c15.95,18.41,34.41,27.88,54.87,28.16c3.79,0.05,7.7,0.08,11.63,0.08c63.58,0,146.25-6.76,245.71-20.1
						c58.34-8.09,108-22.02,147.57-41.39c39.45-18.95,59.63-42.24,59.99-69.21c0.37-27.53-7.79-50.6-24.27-68.55
						c-16.4-17.9-35.09-27.12-55.56-27.4C-219.86,478.26-224.23,478.23-228.6,478.23z"/>
				</g>
				<g>
					<path class="st5" d="M-508.02,701.79c-37.5,0-71.32-1.24-100.52-3.69c-22.46-1.88-41.9-13.56-57.77-34.7
						c-15.81-20.98-22.61-46.18-20.2-74.89c2.45-29.22,25.44-52.75,68.34-69.93c41.82-16.79,92.84-27.38,151.64-31.5
						c56.6-3.91,108.81-5.9,155.2-5.9c37.87,0,72.85,1.32,103.96,3.93c22.39,1.88,42.04,13.26,58.4,33.84
						c16.32,20.5,23.36,45.75,20.91,75.03c-2.49,29.75-25.73,53.56-69.07,70.75c-41.5,16.82-92.73,27.4-152.26,31.44
						C-408.35,699.9-461.72,701.79-508.02,701.79z M-311.33,488.19c-46.23,0-98.28,1.98-154.72,5.88
						c-58.07,4.06-108.38,14.5-149.52,31.01c-40.24,16.11-61.76,37.65-63.97,64.02c-2.26,26.94,4.08,50.53,18.82,70.1
						c14.62,19.48,32.37,30.23,52.76,31.93c29,2.43,62.62,3.66,99.93,3.66c46.16,0,99.38-1.89,158.18-5.6
						c58.77-3.98,109.27-14.4,150.11-30.95c40.69-16.14,62.44-37.96,64.7-64.84c2.3-27.44-4.23-51.02-19.41-70.09
						c-15.11-19.01-33.11-29.51-53.5-31.22C-238.87,489.5-273.65,488.19-311.33,488.19z"/>
				</g>
				<g>
					<path class="st5" d="M-596.81,718.73c-4.75,0-9.46-0.04-14.01-0.11c-22.54-0.36-42.72-10.69-59.98-30.71
						c-17.19-19.87-25.68-44.55-25.22-73.36c0.47-29.32,21.82-54.35,63.46-74.39c40.59-19.58,90.78-33.6,149.16-41.68
						c94.59-13.01,176.32-19.61,242.9-19.61c5.24,0,10.47,0.04,15.54,0.12c22.47,0.36,42.84,10.39,60.55,29.81
						c17.67,19.35,26.4,44.06,25.93,73.44c-0.48,29.85-22.05,55.17-64.12,75.26c-40.27,19.59-90.67,33.61-149.78,41.66
						C-451.04,712.15-533.27,718.73-596.81,718.73z M-240.51,485.87c-66.26,0-147.67,6.58-241.94,19.55
						c-57.66,7.98-107.15,21.79-147.08,41.05c-39.05,18.8-59.07,41.74-59.49,68.2c-0.43,27.03,7.49,50.14,23.52,68.67
						c15.91,18.45,34.34,27.97,54.8,28.29c4.51,0.07,9.19,0.11,13.9,0.11c63.24,0,145.17-6.56,243.49-19.5
						c58.36-7.95,108.05-21.75,147.67-41.03c39.5-18.86,59.73-42.09,60.16-69.07c0.44-27.54-7.67-50.62-24.11-68.61
						c-16.36-17.94-35.03-27.2-55.49-27.53C-230.12,485.91-235.31,485.87-240.51,485.87z"/>
				</g>
			</g>
			<path class="st5" d="M-404.81,429.44h-81.68c-1.93,0-3.5-1.57-3.5-3.5c0-28.96-34.67-73.36-45.35-86.35
				c-18.99-21.7-29.44-49.55-29.44-78.41c0-65.69,53.45-119.14,119.14-119.14c65.69,0,119.14,53.45,119.14,119.14
				c0,27.09-9.34,53.6-26.31,74.67c-0.02,0.02-0.03,0.04-0.05,0.06c-1.02,1.27-2.06,2.5-3.07,3.66
				c-10.69,12.99-45.37,57.4-45.37,86.36C-401.31,427.87-402.88,429.44-404.81,429.44z M-483.14,422.44h74.97
				c2.46-31.16,36.23-74.45,46.85-87.35c0.02-0.03,0.05-0.05,0.07-0.08c0.96-1.1,1.94-2.27,2.92-3.47c0.01-0.01,0.02-0.02,0.02-0.03
				l0,0c15.99-19.83,24.79-44.81,24.79-70.32c0-61.83-50.3-112.14-112.14-112.14c-61.83,0-112.14,50.31-112.14,112.14
				c0,27.18,9.85,53.41,27.75,73.84c0.02,0.03,0.05,0.05,0.07,0.08C-519.36,348-485.59,391.28-483.14,422.44z"/>
			<path class="st5" d="M-403.93,429.44h-76.38c-1.93,0-3.5-1.57-3.5-3.5c0-28.58-32.42-72.35-42.42-85.15
				c-17.75-21.39-27.53-48.82-27.53-77.25c0-64.78,50.08-117.49,111.64-117.49s111.64,52.71,111.64,117.49
				c0,26.69-8.74,52.83-24.62,73.59c-0.01,0.02-0.03,0.04-0.04,0.05c-0.96,1.25-1.92,2.46-2.86,3.59
				c-10,12.81-42.43,56.58-42.43,85.17C-400.43,427.87-402,429.44-403.93,429.44z M-476.95,422.44h69.66
				c2.33-30.69,33.88-73.31,43.81-86.02c0.02-0.03,0.04-0.05,0.06-0.08c0.9-1.08,1.82-2.24,2.74-3.44c0.02-0.03,0.04-0.06,0.07-0.08
				c14.9-19.49,23.13-44.11,23.13-69.28c0-60.92-46.94-110.49-104.64-110.49c-57.7,0-104.64,49.57-104.64,110.49
				c0,26.82,9.22,52.68,25.95,72.82c0.02,0.03,0.04,0.06,0.07,0.08C-510.82,349.14-479.28,391.76-476.95,422.44z"/>
			<path class="st5" d="M-343.08,130.28c-0.63,0-1.28-0.17-1.85-0.53c-1.64-1.02-2.14-3.18-1.11-4.82l12.19-19.51
				c1.02-1.64,3.18-2.14,4.82-1.11c1.64,1.02,2.14,3.18,1.11,4.82l-12.19,19.51C-340.78,129.69-341.92,130.28-343.08,130.28z"/>
			<path class="st5" d="M-441.67,111.25c-1.87,0-3.42-1.48-3.49-3.36l-0.92-22.98c-0.08-1.93,1.43-3.56,3.36-3.64
				c1.92-0.09,3.56,1.43,3.64,3.36l0.92,22.98c0.08,1.93-1.43,3.56-3.36,3.64C-441.57,111.25-441.62,111.25-441.67,111.25z"/>
			<path class="st5" d="M-309.3,195.89c-1.08,0-2.14-0.49-2.82-1.43c-1.14-1.56-0.81-3.75,0.75-4.89l18.54-13.61
				c1.56-1.14,3.75-0.81,4.89,0.75c1.14,1.56,0.81,3.75-0.75,4.89l-18.54,13.61C-307.86,195.67-308.58,195.89-309.3,195.89z"/>
			<path class="st5" d="M-292.76,258.62c-1.65,0-3.11-1.16-3.43-2.84c-0.36-1.9,0.88-3.73,2.78-4.1l22.59-4.34
				c1.9-0.37,3.73,0.88,4.1,2.78c0.36,1.9-0.88,3.73-2.78,4.1l-22.59,4.34C-292.32,258.6-292.54,258.62-292.76,258.62z"/>
			<path class="st5" d="M-287.39,327.16c-0.44,0-0.88-0.08-1.31-0.25l-21.34-8.6c-1.79-0.72-2.66-2.76-1.94-4.55
				c0.72-1.79,2.76-2.66,4.55-1.94l21.34,8.6c1.79,0.72,2.66,2.76,1.94,4.55C-284.7,326.33-286.01,327.16-287.39,327.16z"/>
			<path class="st5" d="M-532.52,130.28c-1.17,0-2.31-0.58-2.97-1.65l-12.19-19.51c-1.02-1.64-0.53-3.8,1.11-4.82
				c1.64-1.03,3.8-0.53,4.82,1.11l12.19,19.51c1.02,1.64,0.53,3.8-1.11,4.82C-531.25,130.11-531.89,130.28-532.52,130.28z"/>
			<path class="st5" d="M-589.47,178.66c-0.72,0-1.44-0.22-2.07-0.68l-18.55-13.61c-1.56-1.14-1.89-3.33-0.75-4.89
				c1.14-1.56,3.33-1.89,4.89-0.75l18.55,13.61c1.56,1.14,1.89,3.33,0.75,4.89C-587.33,178.16-588.39,178.66-589.47,178.66z"/>
			<path class="st5" d="M-600.16,256.45c-0.22,0-0.44-0.02-0.66-0.06l-22.59-4.34c-1.9-0.36-3.14-2.2-2.78-4.1
				c0.36-1.9,2.2-3.14,4.1-2.78l22.59,4.34c1.9,0.36,3.14,2.2,2.78,4.1C-597.04,255.28-598.51,256.45-600.16,256.45z"/>
			<path class="st5" d="M-610.83,334.46c-1.39,0-2.7-0.83-3.25-2.19c-0.72-1.79,0.14-3.83,1.94-4.55l21.33-8.6
				c1.79-0.72,3.83,0.14,4.55,1.94c0.72,1.79-0.14,3.83-1.94,4.55l-21.33,8.6C-609.95,334.37-610.39,334.46-610.83,334.46z"/>
			<text transform="matrix(2.0343 -0.7658 0.3523 0.9359 -678.1966 470.3361)" class="st6 st7" style="font-size:118.2719px;">?</text>
			<path class="st5" d="M-316.46,481.84c-0.36,0-0.73-0.06-1.1-0.18c-1.84-0.61-2.83-2.58-2.23-4.42l59.79-181.37
				c0.13-0.4,0.33-0.77,0.6-1.1l42.46-52.85c0.93-1.16,2.49-1.6,3.89-1.11c1.4,0.49,2.34,1.82,2.34,3.3v62.92
				c0,0.36-0.06,0.72-0.17,1.07l-53.96,168.41c-0.59,1.84-2.56,2.86-4.4,2.26c-1.84-0.59-2.85-2.56-2.26-4.4l53.8-167.89v-52.43
				l-35.83,44.6l-59.59,180.77C-313.62,480.91-314.99,481.84-316.46,481.84z"/>
			<path class="st5" d="M-292.76,480.03c-0.36,0-0.73-0.06-1.09-0.18c-1.84-0.6-2.84-2.58-2.23-4.42l56.09-170.8
				c0.6-1.84,2.59-2.83,4.42-2.23c1.84,0.6,2.84,2.58,2.23,4.42l-56.09,170.8C-289.92,479.1-291.29,480.03-292.76,480.03z"/>
			<path class="st5" d="M-214.21,275.4c-0.2,0-0.4-0.02-0.6-0.05l-19.61-3.37c-1.91-0.33-3.18-2.14-2.86-4.04
				c0.33-1.9,2.14-3.18,4.04-2.86l19.61,3.37c1.91,0.33,3.18,2.14,2.86,4.04C-211.06,274.2-212.54,275.4-214.21,275.4z"/>
			<path class="st5" d="M-221.97,479.74c-0.74,0-1.48-0.23-2.11-0.71c-1.54-1.17-1.84-3.36-0.68-4.9l89.22-117.9l14.02-39.92
				l-39.31,24.44l-101.84,134.98c-1.16,1.54-3.36,1.85-4.9,0.69c-1.54-1.16-1.85-3.36-0.69-4.9l102.24-135.5
				c0.26-0.34,0.58-0.64,0.95-0.86l48.31-30.04c1.26-0.78,2.88-0.69,4.04,0.24c1.16,0.93,1.6,2.49,1.11,3.89l-17.5,49.82
				c-0.12,0.34-0.29,0.66-0.51,0.95l-89.55,118.34C-219.86,479.26-220.91,479.74-221.97,479.74z"/>
			<path class="st5" d="M-244.49,478.35c-0.73,0-1.47-0.23-2.1-0.7c-1.54-1.16-1.85-3.36-0.69-4.9l93.12-123.61
				c1.16-1.54,3.36-1.85,4.9-0.69c1.54,1.16,1.85,3.36,0.69,4.9l-93.12,123.61C-242.38,477.87-243.43,478.35-244.49,478.35z"/>
			<path class="st5" d="M-122.64,333.58c-0.58,0-1.16-0.14-1.7-0.44l-14.59-8.12c-1.69-0.94-2.3-3.07-1.36-4.76
				c0.94-1.69,3.07-2.3,4.76-1.36l14.59,8.12c1.69,0.94,2.3,3.07,1.36,4.76C-120.22,332.93-121.41,333.58-122.64,333.58z"/>
			<path class="st5" d="M-666.94,510.17c-45.91,0-83.8-32.32-88.14-75.18c-2.27-22.41,4.94-44.41,20.28-61.95
				c15.29-17.47,36.84-28.42,60.68-30.83c3.24-0.33,6.53-0.49,9.77-0.49c45.91,0,83.8,32.32,88.14,75.18
				c1.25,12.39-0.46,25.02-4.97,36.73c10.52,4.08,24.95,8.46,39.11,8.79c3.73,0.09,9.98,0.23,9.92,4.99
				c-0.04,3.09-3.13,4.76-8.12,6.44c-3.78,1.27-8.9,2.59-14.81,3.81c-13.44,2.77-28.01,4.43-38.97,4.43c0,0,0,0,0,0
				c-1.84,0-3.61-0.04-5.28-0.13c-15.06,15.65-35.53,25.48-57.83,27.74C-660.42,510-663.7,510.17-666.94,510.17z M-664.36,348.71
				c-3,0-6.05,0.15-9.06,0.46c-22.07,2.23-42,12.35-56.11,28.48c-14.05,16.06-20.65,36.18-18.58,56.63
				c3.97,39.27,38.87,68.88,81.18,68.88c3,0,6.05-0.15,9.06-0.46c21.17-2.14,40.55-11.64,54.55-26.75c0.72-0.78,1.76-1.19,2.83-1.11
				c1.96,0.15,4.13,0.22,6.43,0.22c0,0,0,0,0,0c15.56,0,34.04-3.17,45.38-6.06c-14.56-1.42-28.64-6.19-38.42-10.22
				c-0.87-0.36-1.56-1.05-1.91-1.92c-0.35-0.87-0.34-1.85,0.04-2.71c5.04-11.53,7.05-24.17,5.79-36.56
				C-587.16,378.33-622.05,348.71-664.36,348.71z"/>
			<path class="st5" d="M-214.21,310.54c-0.27,0-0.54-0.03-0.81-0.1l-42.46-10.07c-1.88-0.45-3.04-2.33-2.6-4.21
				c0.45-1.88,2.33-3.05,4.21-2.6l42.46,10.07c1.88,0.45,3.04,2.33,2.6,4.21C-211.19,309.46-212.63,310.54-214.21,310.54z"/>
			<path class="st5" d="M-132.28,360c-0.61,0-1.22-0.16-1.78-0.49l-30.95-18.37c-1.66-0.99-2.21-3.13-1.22-4.8
				c0.99-1.66,3.14-2.21,4.8-1.22l30.95,18.37c1.66,0.99,2.21,3.13,1.22,4.8C-129.92,359.39-131.09,360-132.28,360z"/>
			<path class="st5" d="M-444.52,269.25c-0.47,0-0.95-0.1-1.41-0.3l-1.13-0.5c-1.77-0.78-2.57-2.85-1.79-4.62
				c0.78-1.77,2.85-2.57,4.62-1.79l1.13,0.5c1.77,0.78,2.57,2.85,1.79,4.62C-441.9,268.47-443.18,269.25-444.52,269.25z"/>
		</g>
	</g>
</g>
<g id="ARTBOARD_2">
	<g>
		<rect y="0" class="st9" width="1200" height="800"/>
		<g class="st10">
			<polygon class="st11" points="599.65,399.98 552.53,800 647.47,800 600.35,400.01 600,402.97 			"/>
			<polygon class="st11" points="601.79,386.13 602.12,385.04 647.47,0 552.53,0 598.6,391.06 598.72,391.47 			"/>
			<polygon class="st11" points="600.14,396.29 600.9,395.33 601.63,389.11 599.83,395.22 			"/>
			<polygon class="st11" points="599.45,398.28 599.65,399.98 600,402.97 600.35,400.01 600.4,399.61 599.86,397.77 			"/>
			<polygon class="st11" points="595,397.96 594.93,398.07 595.57,397.89 			"/>
			<polygon class="st11" points="363.91,800 480.19,800 598.62,399.33 582.57,419.58 			"/>
			<polygon class="st11" points="593.13,401.2 592.3,402.65 596.47,399.36 			"/>
			<polygon class="st11" points="601.79,386.13 598.72,391.47 599.83,395.22 601.63,389.11 602.43,386.42 600.94,389.02 			"/>
			<polygon class="st11" points="600.94,389.02 602.43,386.42 824.53,0 715.92,0 602.12,385.04 601.79,386.13 			"/>
			<polygon class="st11" points="601.17,399.76 599.95,397.64 599.86,397.77 600.4,399.61 718.74,800 832.02,800 602.63,400.9 
				600.84,398.65 			"/>
			<polygon class="st11" points="600.14,396.29 599.83,395.22 598.72,391.47 598.6,391.06 483.02,0 371.4,0 597.37,393.14 
				600,396.47 			"/>
			<polygon class="st11" points="601.17,399.76 600.84,398.65 600,397.59 599.95,397.64 			"/>
			<polygon class="st11" points="598.2,397.16 597.02,397.03 598.22,396.89 595.59,396.16 0,326.47 0,467.57 595,397.96 
				595.57,397.89 			"/>
			<polygon class="st11" points="604.45,397.89 1200,467.57 1200,326.48 604.4,396.16 601.29,397.02 			"/>
			<polygon class="st11" points="597.02,397.03 598.2,397.16 598.71,397.02 598.22,396.89 			"/>
			<polygon class="st11" points="599.95,397.64 600,397.59 599.94,397.52 597.89,399.13 598.67,398.15 596.47,399.36 592.3,402.65 
				87.5,800 281.06,800 582.57,419.58 598.62,399.33 599.45,398.28 599.86,397.77 			"/>
			<polygon class="st11" points="600,396.47 600.09,396.58 603.57,394.66 1104.94,0 914.23,0 600.9,395.33 600.14,396.29 			"/>
			<polygon class="st11" points="597.89,399.13 599.94,397.52 599.91,397.47 598.67,398.15 			"/>
			<polygon class="st11" points="597.89,394.93 600.03,396.61 600.09,396.58 600,396.47 597.37,393.14 285.77,0 95.06,0 
				596.44,394.67 598.65,395.88 			"/>
			<polygon class="st11" points="599.91,397.47 599.94,397.52 600,397.59 600.84,398.65 602.63,400.9 918.95,800 1112.5,800 
				603.53,399.36 600,397.42 			"/>
			<polygon class="st11" points="598.65,395.88 600,396.62 600.03,396.61 597.89,394.93 			"/>
			<polygon class="st11" points="598.71,397.02 599.09,396.92 597.24,395.9 599.95,396.65 600,396.62 598.65,395.88 596.44,394.67 
				0,66.33 0,231.29 595.59,396.16 598.22,396.89 			"/>
			<polygon class="st11" points="600.14,397.34 600,397.42 603.53,399.36 1200,727.71 1200,562.76 604.45,397.89 601.29,397.02 			
				"/>
			<polygon class="st11" points="599.09,396.92 599.86,396.7 599.95,396.65 597.24,395.9 			"/>
			<polygon class="st11" points="600.09,396.58 600.03,396.61 600,396.62 599.95,396.65 599.86,396.7 602.76,395.9 600.14,397.34 
				601.29,397.02 604.4,396.16 1200,231.29 1200,66.33 603.57,394.66 			"/>
			<polygon class="st11" points="598.67,398.15 599.91,397.47 600,397.42 600.14,397.34 602.76,395.9 599.86,396.7 599.09,396.92 
				598.71,397.02 598.2,397.16 595.57,397.89 594.93,398.07 0,562.76 0,727.71 593.13,401.2 596.47,399.36 			"/>
		</g>
		<g>
			<g>
				<path class="st5" d="M628.64,488.97h-81.68c-1.93,0-3.5-1.57-3.5-3.5v-59.53c0-1.93,1.57-3.5,3.5-3.5h81.68
					c1.93,0,3.5,1.57,3.5,3.5v59.53C632.14,487.4,630.57,488.97,628.64,488.97z M550.46,481.97h74.68v-52.53h-74.68V481.97z"/>
				<path class="st5" d="M628.64,441.21h-81.68c-1.93,0-3.5-1.57-3.5-3.5c0-1.93,1.57-3.5,3.5-3.5h81.68c1.93,0,3.5,1.57,3.5,3.5
					C632.14,439.64,630.57,441.21,628.64,441.21z"/>
				<path class="st5" d="M628.64,452.28h-81.68c-1.93,0-3.5-1.57-3.5-3.5c0-1.93,1.57-3.5,3.5-3.5h81.68c1.93,0,3.5,1.57,3.5,3.5
					C632.14,450.72,630.57,452.28,628.64,452.28z"/>
				<path class="st5" d="M628.64,466.04h-81.68c-1.93,0-3.5-1.57-3.5-3.5c0-1.93,1.57-3.5,3.5-3.5h81.68c1.93,0,3.5,1.57,3.5,3.5
					C632.14,464.47,630.57,466.04,628.64,466.04z"/>
				<path class="st5" d="M628.64,477.13h-81.68c-1.93,0-3.5-1.57-3.5-3.5c0-1.93,1.57-3.5,3.5-3.5h81.68c1.93,0,3.5,1.57,3.5,3.5
					C632.14,475.56,630.57,477.13,628.64,477.13z"/>
			</g>
			<g>
				<path class="st5" d="M564,318.55c-12.15,0-22.03-9.88-22.03-22.03c0-12.15,9.88-22.03,22.03-22.03
					c12.15,0,22.03,9.88,22.03,22.03C586.03,308.67,576.15,318.55,564,318.55z M564,281.5c-8.29,0-15.03,6.74-15.03,15.03
					c0,8.29,6.74,15.03,15.03,15.03s15.03-6.74,15.03-15.03C579.03,288.24,572.29,281.5,564,281.5z"/>
				<path class="st5" d="M582.53,429.44c-1.93,0-3.5-1.57-3.5-3.5V296.52c0-1.93,1.57-3.5,3.5-3.5c1.93,0,3.5,1.57,3.5,3.5v129.42
					C586.03,427.87,584.46,429.44,582.53,429.44z"/>
			</g>
			<g>
				<path class="st5" d="M616.94,318.55c-12.15,0-22.03-9.88-22.03-22.03c0-12.15,9.88-22.03,22.03-22.03
					c12.15,0,22.03,9.88,22.03,22.03C638.97,308.67,629.09,318.55,616.94,318.55z M616.94,281.5c-8.29,0-15.03,6.74-15.03,15.03
					c0,8.29,6.74,15.03,15.03,15.03s15.03-6.74,15.03-15.03C631.97,288.24,625.23,281.5,616.94,281.5z"/>
				<path class="st5" d="M598.41,429.44c-1.93,0-3.5-1.57-3.5-3.5V296.52c0-1.93,1.57-3.5,3.5-3.5c1.93,0,3.5,1.57,3.5,3.5v129.42
					C601.91,427.87,600.35,429.44,598.41,429.44z"/>
			</g>
			<g>
				<g>
					<g>
						<path class="st6" d="M478.25,645.69c-1.5,2.33-3.45,4.19-5.84,5.58c-2.39,1.39-5.07,2.26-8.05,2.58
							c-2.88,0.32-5.53,0.23-7.95-0.26c-2.42-0.49-4.9-1.46-7.45-2.92s-5.46-3.56-8.73-6.32c-4.61-0.25-8.81-1.42-12.61-3.52
							s-6.89-4.93-9.27-8.49c-2.38-3.56-3.82-7.6-4.31-12.13c-0.57-5.17,0.18-9.95,2.23-14.36c2.05-4.4,5.16-8.01,9.3-10.83
							c4.14-2.82,8.97-4.53,14.49-5.14c5.52-0.61,10.6,0.02,15.26,1.87c4.66,1.85,8.46,4.7,11.43,8.55
							c2.96,3.85,4.73,8.36,5.3,13.53c0.64,5.87-0.39,11.22-3.1,16.07c-2.71,4.85-6.67,8.54-11.87,11.08
							c1.11,0.98,2.18,1.65,3.2,1.99c1.02,0.34,2.1,0.45,3.24,0.32c2.93-0.32,5.43-1.83,7.5-4.52L478.25,645.69z M431.67,626.18
							c1.49,2.13,3.37,3.69,5.65,4.7c2.27,1.01,4.73,1.37,7.36,1.08c2.63-0.29,4.95-1.17,6.95-2.65c2-1.48,3.5-3.42,4.49-5.81
							s1.33-5.06,1.01-8c-0.32-2.93-1.23-5.46-2.72-7.59c-1.49-2.12-3.37-3.69-5.65-4.7c-2.27-1.01-4.73-1.37-7.36-1.08
							c-2.63,0.29-4.95,1.17-6.95,2.65c-2,1.48-3.5,3.42-4.49,5.81c-0.99,2.4-1.33,5.06-1.01,8
							C429.27,621.52,430.18,624.05,431.67,626.18z"/>
						<path class="st6" d="M488.08,633.14c-4.76-3.75-7.57-9.5-8.42-17.26l-3.18-28.93l14.76-1.62l3.13,28.48
							c0.92,8.35,4.68,12.16,11.29,11.43c6.56-0.72,9.38-5.26,8.46-13.61l-3.13-28.48l14.54-1.6l3.18,28.93
							c0.85,7.75-0.64,13.98-4.47,18.68c-3.83,4.7-9.63,7.47-17.38,8.33C499.1,638.34,492.84,636.89,488.08,633.14z"/>
						<path class="st6" d="M535.52,580.47l14.76-1.62l5.74,52.19l-14.76,1.62L535.52,580.47z"/>
						<path class="st6" d="M609.37,613.32l1.29,11.7l-46.74,5.14l-1.02-9.24l22.88-34.13l-25.64,2.82l-1.29-11.71l44.95-4.94
							l1.02,9.24l-22.88,34.13L609.37,613.32z"/>
						<path class="st6" d="M645.5,580.22l-16.03,1.76l-1.29-11.71l46.74-5.14l1.29,11.71l-15.95,1.75l4.45,40.48l-14.76,1.62
							L645.5,580.22z"/>
						<path class="st6" d="M680.44,564.53l14.76-1.62l5.74,52.19l-14.76,1.62L680.44,564.53z"/>
						<path class="st6" d="M758.57,608.76l-3.19-27.64l-10.94,23.99l-6.56,0.72l-15.74-20.3l2.96,26.91l-13.64,1.5l-5.74-52.19
							l12.15-1.34l21.65,28.1l14.58-32.09l12.15-1.34l5.89,52.17L758.57,608.76z"/>
						<path class="st6" d="M823.22,590.11l1.25,11.41l-41.9,4.61l-5.74-52.19l40.93-4.5l1.25,11.41l-26.32,2.89l0.97,8.8l23.19-2.55
							l1.21,11.03l-23.19,2.55l1.05,9.54L823.22,590.11z"/>
						<path class="st6" d="M824.54,548.69l16.85-1.85l0.81,33.49l-11.26,1.24L824.54,548.69z M832.42,599.02
							c-1.76-1.34-2.75-3.1-3-5.29c-0.25-2.24,0.35-4.16,1.78-5.78c1.43-1.62,3.39-2.56,5.88-2.83c2.48-0.27,4.59,0.22,6.31,1.49
							c1.72,1.27,2.71,3.02,2.95,5.26c0.24,2.19-0.35,4.13-1.77,5.82c-1.42,1.69-3.35,2.67-5.79,2.94
							C836.29,600.89,834.17,600.36,832.42,599.02z"/>
					</g>
				</g>
				<g>
					<path class="st5" d="M444.38,711.96c-3.96,0-7.9-0.03-11.72-0.08c-22.54-0.3-42.74-10.59-60.06-30.57
						c-17.24-19.82-25.79-44.49-25.4-73.3c0.4-29.32,21.69-54.4,63.27-74.54c40.55-19.67,90.7-33.82,149.06-42.04
						c95.73-13.41,178.26-20.2,245.31-20.2c4.4,0,8.8,0.03,13.07,0.09c22.47,0.3,42.87,10.28,60.62,29.66
						c17.72,19.31,26.51,44,26.11,73.37c-0.4,29.85-21.92,55.23-63.94,75.42c-40.22,19.69-90.59,33.83-149.68,42.03
						C591.26,705.18,508.28,711.96,444.38,711.96z M804.85,478.23c-66.73,0-148.94,6.77-244.34,20.13
						c-57.64,8.12-107.09,22.05-146.98,41.41c-39.01,18.89-58.97,41.89-59.33,68.34c-0.36,27.04,7.61,50.12,23.69,68.61
						c15.95,18.41,34.41,27.88,54.87,28.16c3.79,0.05,7.7,0.08,11.63,0.08c63.59,0,146.26-6.76,245.71-20.1
						c58.34-8.09,108-22.02,147.57-41.39c39.45-18.95,59.63-42.24,59.99-69.21c0.37-27.53-7.79-50.6-24.27-68.55
						c-16.4-17.9-35.09-27.12-55.56-27.4C813.59,478.26,809.22,478.23,804.85,478.23z"/>
				</g>
				<g>
					<path class="st5" d="M525.43,701.79c-37.5,0-71.32-1.24-100.52-3.69c-22.46-1.88-41.9-13.56-57.77-34.7
						c-15.81-20.98-22.61-46.18-20.21-74.89c2.45-29.22,25.44-52.75,68.34-69.93c41.82-16.79,92.84-27.38,151.64-31.5
						c56.6-3.91,108.81-5.9,155.2-5.9c37.87,0,72.85,1.32,103.96,3.93c22.39,1.88,42.04,13.26,58.39,33.84
						c16.32,20.5,23.36,45.75,20.91,75.03c-2.49,29.75-25.73,53.56-69.07,70.75c-41.5,16.82-92.73,27.4-152.26,31.44
						C625.1,699.9,571.74,701.79,525.43,701.79z M722.12,488.19c-46.23,0-98.29,1.98-154.72,5.88
						c-58.07,4.06-108.38,14.5-149.52,31.01c-40.24,16.11-61.76,37.65-63.97,64.02c-2.26,26.94,4.08,50.53,18.82,70.1
						c14.62,19.48,32.37,30.23,52.76,31.93c29,2.43,62.62,3.66,99.93,3.66c46.16,0,99.38-1.89,158.18-5.6
						c58.77-3.98,109.28-14.4,150.11-30.95c40.69-16.14,62.44-37.96,64.7-64.84c2.3-27.44-4.23-51.02-19.41-70.08
						c-15.11-19.01-33.11-29.51-53.5-31.22C794.58,489.5,759.8,488.19,722.12,488.19z"/>
				</g>
				<g>
					<path class="st5" d="M436.64,718.73c-4.75,0-9.46-0.04-14.01-0.11c-22.54-0.36-42.72-10.69-59.98-30.71
						c-17.19-19.87-25.68-44.55-25.22-73.36c0.47-29.32,21.82-54.35,63.46-74.39c40.59-19.58,90.78-33.6,149.16-41.68
						c94.59-13.01,176.31-19.61,242.9-19.61c5.24,0,10.47,0.04,15.54,0.12c22.47,0.36,42.84,10.39,60.55,29.81
						c17.68,19.35,26.4,44.06,25.94,73.44c-0.48,29.85-22.05,55.17-64.13,75.26c-40.27,19.59-90.67,33.61-149.78,41.66
						C582.41,712.15,500.18,718.73,436.64,718.73z M792.94,485.87c-66.26,0-147.66,6.58-241.94,19.55
						c-57.66,7.98-107.15,21.79-147.08,41.05c-39.05,18.8-59.07,41.74-59.49,68.2c-0.43,27.03,7.49,50.14,23.52,68.67
						c15.91,18.45,34.34,27.97,54.8,28.29c4.51,0.07,9.19,0.11,13.9,0.11c63.24,0,145.16-6.56,243.49-19.5
						c58.36-7.95,108.04-21.75,147.67-41.03c39.5-18.86,59.73-42.09,60.16-69.07c0.44-27.54-7.67-50.62-24.11-68.61
						c-16.36-17.94-35.03-27.2-55.49-27.53C803.33,485.92,798.14,485.87,792.94,485.87z"/>
				</g>
			</g>
			<path class="st5" d="M628.64,429.44h-81.68c-1.93,0-3.5-1.57-3.5-3.5c0-28.96-34.67-73.36-45.35-86.35
				c-18.99-21.7-29.45-49.55-29.45-78.41c0-65.69,53.45-119.14,119.14-119.14c65.69,0,119.14,53.45,119.14,119.14
				c0,27.09-9.34,53.6-26.3,74.67c-0.02,0.02-0.03,0.04-0.05,0.06c-1.02,1.27-2.06,2.5-3.07,3.66
				c-10.69,12.99-45.37,57.4-45.37,86.36C632.14,427.87,630.57,429.44,628.64,429.44z M550.31,422.44h74.97
				c2.46-31.16,36.23-74.45,46.85-87.35c0.02-0.03,0.04-0.05,0.07-0.08c0.96-1.1,1.95-2.27,2.92-3.47c0.01-0.01,0.02-0.02,0.02-0.03
				l0,0c15.99-19.83,24.79-44.81,24.79-70.32c0-61.83-50.3-112.14-112.14-112.14c-61.83,0-112.14,50.31-112.14,112.14
				c0,27.18,9.86,53.41,27.75,73.84c0.02,0.03,0.04,0.05,0.07,0.08C514.09,348,547.86,391.29,550.31,422.44z"/>
			<path class="st5" d="M629.52,429.44h-76.38c-1.93,0-3.5-1.57-3.5-3.5c0-28.58-32.42-72.35-42.41-85.15
				c-17.75-21.39-27.53-48.82-27.53-77.25c0-64.78,50.08-117.49,111.64-117.49c61.56,0,111.64,52.71,111.64,117.49
				c0,26.69-8.74,52.83-24.62,73.59c-0.01,0.02-0.03,0.04-0.04,0.05c-0.96,1.25-1.92,2.46-2.86,3.59
				c-10,12.81-42.43,56.58-42.43,85.17C633.02,427.87,631.45,429.44,629.52,429.44z M556.5,422.44h69.66
				c2.33-30.69,33.88-73.31,43.81-86.02c0.02-0.03,0.04-0.05,0.06-0.08c0.9-1.08,1.82-2.24,2.74-3.44c0.02-0.03,0.04-0.06,0.07-0.08
				c14.9-19.49,23.13-44.11,23.13-69.28c0-60.92-46.94-110.49-104.64-110.49c-57.7,0-104.64,49.57-104.64,110.49
				c0,26.82,9.22,52.68,25.95,72.82c0.02,0.03,0.04,0.06,0.07,0.08C522.63,349.15,554.17,391.76,556.5,422.44z"/>
			<path class="st5" d="M690.37,130.28c-0.63,0-1.28-0.17-1.85-0.53c-1.64-1.02-2.14-3.18-1.11-4.82l12.19-19.51
				c1.02-1.64,3.18-2.14,4.82-1.11c1.64,1.02,2.14,3.18,1.11,4.82l-12.19,19.51C692.67,129.7,691.53,130.28,690.37,130.28z"/>
			<path class="st5" d="M591.78,111.25c-1.87,0-3.42-1.48-3.49-3.36l-0.92-22.98c-0.08-1.93,1.43-3.56,3.36-3.64
				c1.92-0.09,3.56,1.43,3.64,3.36l0.92,22.98c0.08,1.93-1.43,3.56-3.36,3.64C591.88,111.25,591.83,111.25,591.78,111.25z"/>
			<path class="st5" d="M724.15,195.89c-1.08,0-2.14-0.49-2.82-1.43c-1.14-1.56-0.81-3.75,0.75-4.89l18.54-13.61
				c1.56-1.14,3.75-0.81,4.89,0.75c1.14,1.56,0.81,3.75-0.75,4.89l-18.54,13.61C725.59,195.67,724.87,195.89,724.15,195.89z"/>
			<path class="st5" d="M740.69,258.62c-1.64,0-3.11-1.17-3.43-2.84c-0.36-1.9,0.88-3.73,2.78-4.1l22.59-4.34
				c1.9-0.37,3.73,0.88,4.1,2.78c0.37,1.9-0.88,3.73-2.78,4.1l-22.59,4.34C741.13,258.6,740.91,258.62,740.69,258.62z"/>
			<path class="st5" d="M746.06,327.16c-0.44,0-0.88-0.08-1.31-0.25l-21.34-8.6c-1.79-0.72-2.66-2.76-1.94-4.55
				c0.72-1.79,2.76-2.66,4.55-1.94l21.34,8.6c1.79,0.72,2.66,2.76,1.94,4.55C748.76,326.33,747.44,327.16,746.06,327.16z"/>
			<path class="st5" d="M500.93,130.28c-1.17,0-2.31-0.58-2.97-1.65l-12.19-19.51c-1.03-1.64-0.53-3.8,1.11-4.82
				c1.64-1.03,3.8-0.53,4.82,1.11l12.19,19.51c1.03,1.64,0.53,3.8-1.11,4.82C502.21,130.11,501.56,130.28,500.93,130.28z"/>
			<path class="st5" d="M443.98,178.66c-0.72,0-1.44-0.22-2.07-0.68l-18.55-13.61c-1.56-1.14-1.89-3.33-0.75-4.89
				c1.14-1.56,3.33-1.89,4.89-0.75l18.54,13.61c1.56,1.14,1.89,3.33,0.75,4.89C446.12,178.16,445.06,178.66,443.98,178.66z"/>
			<path class="st5" d="M433.29,256.45c-0.22,0-0.44-0.02-0.66-0.06l-22.59-4.34c-1.9-0.36-3.14-2.2-2.78-4.1
				c0.37-1.9,2.2-3.14,4.1-2.78l22.59,4.34c1.9,0.36,3.14,2.2,2.78,4.1C436.41,255.28,434.94,256.45,433.29,256.45z"/>
			<path class="st5" d="M422.63,334.46c-1.38,0-2.7-0.83-3.25-2.19c-0.72-1.79,0.14-3.83,1.94-4.55l21.34-8.6
				c1.79-0.72,3.83,0.14,4.55,1.94c0.72,1.79-0.14,3.83-1.94,4.55l-21.34,8.6C423.5,334.38,423.06,334.46,422.63,334.46z"/>
			<g>
				<path class="st6" d="M362.08,433.4c0.97-3.88,2.79-8.43,5.46-13.68c1.96-3.84,3.3-6.95,4-9.33c0.7-2.38,0.61-4.75-0.27-7.1
					c-1.26-3.35-3.59-5.49-6.99-6.43c-3.4-0.94-7.32-0.58-11.75,1.09c-4.25,1.6-7.7,3.9-10.34,6.91c-2.64,3.01-4.49,6.52-5.56,10.54
					l-20.05-3.45c1.62-7.22,5.07-13.63,10.35-19.23c5.28-5.6,12.35-10.07,21.21-13.41c10.4-3.92,19.58-4.84,27.54-2.77
					c7.96,2.07,13.42,7.04,16.38,14.91c1.4,3.71,2.01,7.2,1.85,10.46c-0.17,3.26-0.76,6.2-1.8,8.81c-1.03,2.61-2.47,5.71-4.32,9.3
					c-2.22,4.25-3.72,7.68-4.49,10.29c-0.77,2.61-0.61,5.37,0.48,8.26l-20.49,7.71C361.52,441.57,361.12,437.28,362.08,433.4z
					 M375.77,476.36c-3.39-1.46-5.73-3.91-7.03-7.35c-1.29-3.44-1.15-6.77,0.42-10s4.26-5.55,8.06-6.98
					c3.8-1.43,7.35-1.45,10.67-0.07c3.31,1.39,5.61,3.8,6.91,7.24c1.29,3.44,1.15,6.83-0.44,10.16c-1.59,3.33-4.23,5.7-7.94,7.09
					C382.71,477.85,379.17,477.82,375.77,476.36z"/>
			</g>
			<path class="st5" d="M716.99,481.84c-0.36,0-0.73-0.06-1.1-0.18c-1.84-0.61-2.83-2.58-2.23-4.42l59.79-181.37
				c0.13-0.4,0.33-0.77,0.6-1.1l42.46-52.85c0.93-1.16,2.49-1.6,3.89-1.11c1.4,0.49,2.34,1.82,2.34,3.3v62.92
				c0,0.36-0.06,0.72-0.17,1.07l-53.96,168.41c-0.59,1.84-2.56,2.86-4.4,2.26c-1.84-0.59-2.85-2.56-2.26-4.4l53.79-167.89v-52.43
				l-35.83,44.6l-59.59,180.77C719.83,480.91,718.46,481.84,716.99,481.84z"/>
			<path class="st5" d="M740.7,480.04c-0.36,0-0.73-0.06-1.09-0.18c-1.84-0.6-2.84-2.58-2.23-4.42l56.09-170.8
				c0.6-1.84,2.59-2.83,4.42-2.23c1.84,0.6,2.84,2.58,2.23,4.42l-56.09,170.8C743.54,479.1,742.17,480.04,740.7,480.04z"/>
			<path class="st5" d="M819.24,275.4c-0.2,0-0.39-0.02-0.6-0.05l-19.61-3.37c-1.9-0.33-3.18-2.14-2.86-4.04
				c0.33-1.9,2.14-3.18,4.04-2.86l19.61,3.37c1.91,0.33,3.19,2.14,2.86,4.04C822.39,274.2,820.91,275.4,819.24,275.4z"/>
			<path class="st5" d="M811.48,479.74c-0.74,0-1.48-0.23-2.11-0.71c-1.54-1.17-1.85-3.36-0.68-4.9l89.22-117.9l14.02-39.92
				l-39.31,24.44L770.79,475.74c-1.16,1.54-3.36,1.85-4.9,0.69c-1.54-1.16-1.85-3.36-0.69-4.9l102.24-135.5
				c0.26-0.34,0.58-0.64,0.95-0.86l48.31-30.04c1.26-0.78,2.88-0.69,4.04,0.24c1.16,0.93,1.6,2.49,1.11,3.89l-17.5,49.82
				c-0.12,0.34-0.29,0.66-0.51,0.95l-89.55,118.34C813.59,479.26,812.54,479.74,811.48,479.74z"/>
			<path class="st5" d="M788.96,478.35c-0.73,0-1.47-0.23-2.1-0.7c-1.54-1.16-1.85-3.36-0.69-4.9l93.12-123.61
				c1.16-1.54,3.36-1.85,4.9-0.69c1.54,1.16,1.85,3.36,0.69,4.9l-93.12,123.61C791.07,477.87,790.02,478.35,788.96,478.35z"/>
			<path class="st5" d="M910.81,333.58c-0.58,0-1.16-0.14-1.7-0.44l-14.59-8.12c-1.69-0.94-2.3-3.07-1.36-4.76
				c0.94-1.69,3.07-2.3,4.76-1.36l14.59,8.12c1.69,0.94,2.29,3.07,1.36,4.76C913.23,332.93,912.04,333.58,910.81,333.58z"/>
			<path class="st5" d="M366.51,510.17c-45.91,0-83.8-32.32-88.14-75.18c-2.27-22.41,4.94-44.41,20.28-61.95
				c15.29-17.47,36.84-28.42,60.68-30.83c3.24-0.33,6.53-0.49,9.77-0.49c45.91,0,83.8,32.32,88.13,75.18
				c1.25,12.39-0.46,25.02-4.97,36.73c10.52,4.08,24.95,8.46,39.11,8.79c3.73,0.09,9.98,0.23,9.92,4.99
				c-0.04,3.09-3.13,4.76-8.12,6.44c-3.78,1.27-8.9,2.59-14.81,3.81c-13.44,2.77-28.01,4.43-38.97,4.43c0,0,0,0,0,0
				c-1.85,0-3.61-0.04-5.28-0.13c-15.06,15.65-35.53,25.48-57.83,27.74C373.03,510,369.75,510.17,366.51,510.17z M369.1,348.72
				c-3,0-6.05,0.15-9.06,0.46c-22.07,2.23-42,12.35-56.12,28.48c-14.05,16.06-20.65,36.18-18.58,56.63
				c3.97,39.27,38.87,68.88,81.18,68.88c3,0,6.05-0.15,9.06-0.46c21.17-2.14,40.55-11.64,54.55-26.75c0.72-0.78,1.76-1.19,2.83-1.11
				c1.96,0.15,4.13,0.22,6.43,0.22c0,0,0,0,0.01,0c15.56,0,34.04-3.17,45.38-6.06c-14.55-1.42-28.64-6.19-38.42-10.22
				c-0.87-0.36-1.56-1.05-1.91-1.92c-0.35-0.87-0.34-1.85,0.04-2.71c5.04-11.53,7.05-24.17,5.79-36.56
				C446.29,378.33,411.4,348.72,369.1,348.72z"/>
			<path class="st5" d="M819.24,310.54c-0.27,0-0.54-0.03-0.81-0.1l-42.46-10.07c-1.88-0.45-3.04-2.33-2.6-4.21
				c0.45-1.88,2.33-3.05,4.21-2.6l42.46,10.07c1.88,0.45,3.04,2.33,2.6,4.21C822.26,309.46,820.82,310.54,819.24,310.54z"/>
			<path class="st5" d="M901.17,360c-0.61,0-1.22-0.16-1.79-0.49l-30.95-18.37c-1.66-0.99-2.21-3.13-1.22-4.8
				c0.99-1.66,3.14-2.21,4.8-1.22l30.95,18.37c1.66,0.99,2.21,3.13,1.22,4.8C903.53,359.39,902.36,360,901.17,360z"/>
			<path class="st5" d="M588.93,269.25c-0.47,0-0.95-0.1-1.41-0.3l-1.13-0.5c-1.77-0.78-2.57-2.85-1.79-4.62
				c0.78-1.77,2.85-2.57,4.62-1.79l1.13,0.5c1.77,0.78,2.57,2.85,1.79,4.62C591.55,268.47,590.27,269.25,588.93,269.25z"/>
		</g>
	</g>
</g>
<g id="DESIGNED_BY_FREEPIK_1_">
	<g>
		<path class="st12" d="M-547.42,774.29v-0.26c-0.35,0.4-0.69,0.72-1.03,0.97c-0.34,0.25-0.71,0.44-1.1,0.57
			c-0.39,0.13-0.83,0.2-1.29,0.2c-0.62,0-1.2-0.13-1.72-0.39c-0.53-0.26-0.99-0.64-1.37-1.13c-0.39-0.49-0.68-1.06-0.88-1.72
			c-0.2-0.66-0.3-1.37-0.3-2.14c0-1.62,0.4-2.89,1.19-3.79c0.79-0.9,1.83-1.36,3.13-1.36c0.75,0,1.38,0.13,1.89,0.38
			c0.51,0.26,1.01,0.65,1.5,1.18v-3.83c0-0.53,0.11-0.93,0.32-1.21c0.21-0.27,0.51-0.41,0.91-0.41c0.39,0,0.7,0.13,0.91,0.38
			c0.21,0.25,0.32,0.62,0.32,1.11v11.44c0,0.49-0.11,0.86-0.34,1.11c-0.23,0.25-0.52,0.37-0.88,0.37c-0.35,0-0.65-0.13-0.88-0.38
			C-547.31,775.13-547.42,774.76-547.42,774.29z M-552.52,770.48c0,0.7,0.11,1.3,0.33,1.79c0.22,0.49,0.52,0.87,0.9,1.12
			c0.38,0.25,0.79,0.38,1.24,0.38c0.46,0,0.87-0.12,1.25-0.36c0.38-0.24,0.68-0.6,0.9-1.09c0.23-0.49,0.34-1.11,0.34-1.84
			c0-0.69-0.11-1.28-0.34-1.78c-0.22-0.5-0.53-0.88-0.91-1.14c-0.38-0.26-0.8-0.39-1.26-0.39c-0.47,0-0.9,0.13-1.27,0.4
			c-0.38,0.27-0.66,0.65-0.87,1.16C-552.42,769.23-552.52,769.81-552.52,770.48z"/>
		<path class="st12" d="M-535.99,771.13h-5.07c0.01,0.59,0.12,1.11,0.36,1.56c0.23,0.45,0.54,0.79,0.92,1.02
			c0.38,0.23,0.8,0.34,1.27,0.34c0.31,0,0.59-0.04,0.85-0.11c0.26-0.07,0.51-0.19,0.75-0.34c0.24-0.15,0.46-0.32,0.66-0.5
			c0.2-0.18,0.46-0.42,0.79-0.72c0.13-0.11,0.32-0.17,0.57-0.17c0.27,0,0.48,0.07,0.64,0.22c0.16,0.15,0.25,0.35,0.25,0.62
			c0,0.23-0.09,0.51-0.28,0.82c-0.19,0.31-0.46,0.61-0.83,0.9c-0.37,0.29-0.83,0.53-1.4,0.72c-0.56,0.19-1.2,0.29-1.93,0.29
			c-1.67,0-2.96-0.48-3.88-1.42c-0.92-0.95-1.39-2.24-1.39-3.87c0-0.77,0.11-1.48,0.34-2.13c0.23-0.66,0.56-1.22,1-1.69
			c0.44-0.47,0.98-0.83,1.62-1.08c0.64-0.25,1.35-0.37,2.13-0.37c1.01,0,1.88,0.21,2.61,0.64c0.73,0.43,1.27,0.98,1.63,1.66
			c0.36,0.68,0.54,1.37,0.54,2.07c0,0.65-0.19,1.08-0.56,1.27C-534.79,771.04-535.31,771.13-535.99,771.13z M-541.06,769.66h4.7
			c-0.06-0.89-0.3-1.55-0.72-1.99c-0.42-0.44-0.96-0.66-1.64-0.66c-0.65,0-1.18,0.22-1.59,0.67
			C-540.72,768.13-540.97,768.79-541.06,769.66z"/>
		<path class="st12" d="M-524.18,772.38c0,0.72-0.17,1.33-0.52,1.84c-0.35,0.51-0.86,0.9-1.54,1.16c-0.68,0.26-1.51,0.39-2.48,0.39
			c-0.93,0-1.73-0.14-2.39-0.43c-0.67-0.28-1.16-0.64-1.47-1.07c-0.32-0.43-0.47-0.86-0.47-1.29c0-0.29,0.1-0.53,0.3-0.73
			c0.2-0.2,0.46-0.3,0.77-0.3c0.27,0,0.48,0.07,0.63,0.2c0.15,0.13,0.29,0.32,0.42,0.56c0.27,0.46,0.58,0.81,0.96,1.04
			c0.37,0.23,0.88,0.34,1.52,0.34c0.52,0,0.95-0.12,1.28-0.35c0.33-0.23,0.5-0.5,0.5-0.79c0-0.46-0.17-0.79-0.52-1
			c-0.35-0.21-0.91-0.41-1.71-0.6c-0.89-0.22-1.62-0.45-2.18-0.7c-0.56-0.24-1.01-0.56-1.34-0.96c-0.34-0.4-0.5-0.89-0.5-1.47
			c0-0.52,0.15-1.01,0.46-1.47c0.31-0.46,0.77-0.83,1.38-1.11c0.6-0.28,1.33-0.41,2.19-0.41c0.67,0,1.28,0.07,1.81,0.21
			c0.54,0.14,0.98,0.33,1.34,0.56c0.36,0.23,0.63,0.49,0.82,0.78c0.19,0.29,0.28,0.56,0.28,0.84c0,0.3-0.1,0.54-0.3,0.73
			c-0.2,0.19-0.48,0.29-0.85,0.29c-0.27,0-0.49-0.08-0.68-0.23c-0.19-0.15-0.4-0.38-0.64-0.68c-0.2-0.25-0.43-0.46-0.69-0.61
			c-0.27-0.15-0.63-0.23-1.08-0.23c-0.47,0-0.86,0.1-1.17,0.3c-0.31,0.2-0.46,0.45-0.46,0.74c0,0.27,0.11,0.5,0.34,0.67
			c0.23,0.17,0.54,0.32,0.92,0.43c0.38,0.11,0.92,0.25,1.6,0.42c0.8,0.2,1.46,0.43,1.97,0.7c0.51,0.27,0.9,0.59,1.16,0.96
			C-524.31,771.48-524.18,771.9-524.18,772.38z"/>
		<path class="st12" d="M-521.53,764.02c-0.36,0-0.67-0.11-0.93-0.33c-0.26-0.22-0.38-0.53-0.38-0.94c0-0.37,0.13-0.67,0.39-0.91
			c0.26-0.24,0.57-0.36,0.92-0.36c0.34,0,0.63,0.11,0.89,0.32c0.26,0.22,0.39,0.53,0.39,0.94c0,0.4-0.13,0.71-0.38,0.94
			C-520.88,763.91-521.18,764.02-521.53,764.02z M-520.25,766.7v7.49c0,0.52-0.12,0.91-0.37,1.18c-0.25,0.27-0.56,0.4-0.94,0.4
			c-0.38,0-0.69-0.14-0.93-0.41c-0.24-0.27-0.36-0.66-0.36-1.17v-7.42c0-0.51,0.12-0.9,0.36-1.16c0.24-0.26,0.54-0.39,0.93-0.39
			c0.38,0,0.69,0.13,0.94,0.39C-520.37,765.87-520.25,766.23-520.25,766.7z"/>
		<path class="st12" d="M-508.89,767.12v7.53c0,0.86-0.09,1.6-0.28,2.22c-0.18,0.62-0.48,1.13-0.88,1.54
			c-0.4,0.4-0.94,0.71-1.59,0.9c-0.65,0.2-1.47,0.29-2.45,0.29c-0.89,0-1.69-0.13-2.39-0.38c-0.7-0.25-1.24-0.57-1.62-0.97
			c-0.38-0.4-0.57-0.8-0.57-1.22c0-0.32,0.11-0.58,0.32-0.77c0.21-0.2,0.48-0.3,0.78-0.3c0.38,0,0.71,0.17,1,0.5
			c0.14,0.17,0.28,0.34,0.43,0.52c0.15,0.17,0.31,0.32,0.49,0.45c0.18,0.12,0.4,0.21,0.65,0.27c0.25,0.06,0.54,0.09,0.87,0.09
			c0.67,0,1.19-0.09,1.56-0.28c0.37-0.19,0.63-0.45,0.78-0.78c0.15-0.33,0.24-0.69,0.26-1.08c0.03-0.38,0.04-1,0.06-1.85
			c-0.4,0.56-0.86,0.98-1.38,1.27c-0.52,0.29-1.14,0.44-1.87,0.44c-0.87,0-1.63-0.22-2.28-0.66c-0.65-0.44-1.15-1.06-1.5-1.86
			c-0.35-0.8-0.52-1.72-0.52-2.76c0-0.78,0.11-1.48,0.32-2.11c0.21-0.63,0.51-1.16,0.91-1.59c0.39-0.43,0.85-0.75,1.36-0.97
			c0.51-0.22,1.08-0.33,1.69-0.33c0.73,0,1.37,0.14,1.91,0.42c0.54,0.28,1.04,0.72,1.5,1.33v-0.35c0-0.45,0.11-0.8,0.33-1.04
			c0.22-0.25,0.51-0.37,0.86-0.37c0.5,0,0.83,0.16,1,0.49C-508.97,766.04-508.89,766.51-508.89,767.12z M-516.4,770.41
			c0,1.05,0.23,1.85,0.69,2.38c0.46,0.54,1.05,0.81,1.78,0.81c0.43,0,0.84-0.12,1.22-0.35c0.38-0.23,0.7-0.58,0.94-1.04
			c0.24-0.47,0.36-1.03,0.36-1.7c0-1.06-0.23-1.88-0.7-2.47c-0.47-0.59-1.08-0.88-1.84-0.88c-0.74,0-1.34,0.28-1.78,0.85
			C-516.18,768.57-516.4,769.37-516.4,770.41z"/>
		<path class="st12" d="M-504.76,766.66v0.31c0.46-0.6,0.95-1.04,1.5-1.33c0.54-0.28,1.16-0.42,1.87-0.42
			c0.68,0,1.29,0.15,1.83,0.45c0.54,0.3,0.94,0.72,1.21,1.26c0.17,0.32,0.28,0.66,0.33,1.03c0.05,0.37,0.08,0.84,0.08,1.41v4.82
			c0,0.52-0.12,0.91-0.36,1.18c-0.24,0.27-0.54,0.4-0.93,0.4c-0.39,0-0.7-0.14-0.94-0.41c-0.24-0.27-0.36-0.66-0.36-1.17v-4.32
			c0-0.85-0.12-1.51-0.36-1.96c-0.24-0.45-0.71-0.68-1.42-0.68c-0.46,0-0.88,0.14-1.26,0.41c-0.38,0.28-0.66,0.66-0.84,1.14
			c-0.13,0.39-0.19,1.11-0.19,2.16v3.25c0,0.53-0.12,0.92-0.37,1.18c-0.24,0.26-0.56,0.39-0.94,0.39c-0.38,0-0.68-0.14-0.92-0.41
			c-0.24-0.27-0.36-0.66-0.36-1.17v-7.49c0-0.49,0.11-0.86,0.32-1.11c0.21-0.24,0.51-0.37,0.88-0.37c0.23,0,0.44,0.05,0.62,0.16
			c0.18,0.11,0.33,0.27,0.44,0.48C-504.82,766.09-504.76,766.35-504.76,766.66z"/>
		<path class="st12" d="M-488.99,771.13h-5.07c0.01,0.59,0.13,1.11,0.36,1.56c0.23,0.45,0.54,0.79,0.92,1.02
			c0.38,0.23,0.8,0.34,1.27,0.34c0.31,0,0.59-0.04,0.85-0.11c0.25-0.07,0.5-0.19,0.74-0.34c0.24-0.15,0.46-0.32,0.67-0.5
			c0.2-0.18,0.46-0.42,0.79-0.72c0.13-0.11,0.32-0.17,0.57-0.17c0.27,0,0.48,0.07,0.65,0.22c0.16,0.15,0.25,0.35,0.25,0.62
			c0,0.23-0.09,0.51-0.28,0.82c-0.18,0.31-0.46,0.61-0.83,0.9c-0.37,0.29-0.83,0.53-1.39,0.72c-0.56,0.19-1.21,0.29-1.93,0.29
			c-1.67,0-2.96-0.48-3.88-1.42s-1.39-2.24-1.39-3.87c0-0.77,0.11-1.48,0.34-2.13c0.23-0.66,0.56-1.22,1-1.69
			c0.44-0.47,0.97-0.83,1.61-1.08c0.64-0.25,1.35-0.37,2.13-0.37c1.01,0,1.88,0.21,2.61,0.64c0.73,0.43,1.27,0.98,1.63,1.66
			c0.36,0.68,0.54,1.37,0.54,2.07c0,0.65-0.19,1.08-0.56,1.27C-487.79,771.04-488.31,771.13-488.99,771.13z M-494.06,769.66h4.7
			c-0.06-0.89-0.3-1.55-0.72-1.99c-0.42-0.44-0.96-0.66-1.64-0.66c-0.65,0-1.18,0.22-1.59,0.67S-493.97,768.79-494.06,769.66z"/>
		<path class="st12" d="M-478.42,774.29v-0.26c-0.35,0.4-0.69,0.72-1.03,0.97c-0.34,0.25-0.71,0.44-1.1,0.57
			c-0.4,0.13-0.83,0.2-1.3,0.2c-0.62,0-1.2-0.13-1.72-0.39c-0.53-0.26-0.99-0.64-1.37-1.13c-0.39-0.49-0.68-1.06-0.88-1.72
			c-0.2-0.66-0.3-1.37-0.3-2.14c0-1.62,0.39-2.89,1.19-3.79c0.79-0.9,1.83-1.36,3.13-1.36c0.75,0,1.38,0.13,1.89,0.38
			c0.51,0.26,1.01,0.65,1.5,1.18v-3.83c0-0.53,0.11-0.93,0.32-1.21c0.21-0.27,0.52-0.41,0.91-0.41c0.39,0,0.69,0.13,0.91,0.38
			c0.21,0.25,0.32,0.62,0.32,1.11v11.44c0,0.49-0.11,0.86-0.34,1.11c-0.23,0.25-0.52,0.37-0.88,0.37c-0.36,0-0.65-0.13-0.88-0.38
			C-478.31,775.13-478.42,774.76-478.42,774.29z M-483.52,770.48c0,0.7,0.11,1.3,0.33,1.79c0.22,0.49,0.52,0.87,0.9,1.12
			c0.38,0.25,0.79,0.38,1.24,0.38c0.46,0,0.87-0.12,1.25-0.36c0.38-0.24,0.68-0.6,0.9-1.09c0.22-0.49,0.34-1.11,0.34-1.84
			c0-0.69-0.11-1.28-0.34-1.78c-0.22-0.5-0.53-0.88-0.91-1.14c-0.38-0.26-0.8-0.39-1.26-0.39c-0.47,0-0.9,0.13-1.27,0.4
			c-0.37,0.27-0.66,0.65-0.87,1.16C-483.42,769.23-483.52,769.81-483.52,770.48z"/>
		<path class="st12" d="M-467.82,762.85v3.96c0.49-0.51,0.98-0.89,1.49-1.16c0.51-0.27,1.13-0.4,1.88-0.4c0.86,0,1.62,0.2,2.27,0.61
			c0.65,0.41,1.15,1,1.51,1.78c0.36,0.77,0.54,1.7,0.54,2.76c0,0.79-0.1,1.5-0.3,2.16c-0.2,0.66-0.49,1.22-0.87,1.7
			c-0.38,0.48-0.84,0.85-1.38,1.12c-0.54,0.26-1.14,0.39-1.79,0.39c-0.4,0-0.77-0.05-1.13-0.14c-0.35-0.09-0.65-0.22-0.9-0.38
			c-0.25-0.15-0.46-0.31-0.63-0.48c-0.17-0.16-0.4-0.41-0.69-0.74v0.26c0,0.49-0.12,0.86-0.35,1.11c-0.23,0.25-0.53,0.37-0.89,0.37
			c-0.37,0-0.66-0.12-0.88-0.37c-0.22-0.25-0.33-0.62-0.33-1.11v-11.32c0-0.53,0.11-0.92,0.32-1.19c0.21-0.27,0.51-0.4,0.89-0.4
			c0.4,0,0.71,0.13,0.92,0.38C-467.93,762.01-467.82,762.37-467.82,762.85z M-467.7,770.55c0,1.03,0.23,1.82,0.71,2.38
			c0.47,0.55,1.09,0.83,1.86,0.83c0.65,0,1.21-0.28,1.69-0.85c0.47-0.57,0.71-1.38,0.71-2.44c0-0.68-0.1-1.27-0.29-1.77
			c-0.2-0.49-0.47-0.88-0.83-1.14c-0.36-0.27-0.78-0.4-1.26-0.4c-0.49,0-0.94,0.13-1.32,0.4c-0.39,0.27-0.69,0.66-0.91,1.17
			C-467.59,769.24-467.7,769.85-467.7,770.55z"/>
		<path class="st12" d="M-456.78,776.09l0.24-0.58l-3.19-8.04c-0.2-0.46-0.3-0.8-0.3-1.01c0-0.22,0.06-0.43,0.17-0.62
			c0.12-0.19,0.27-0.34,0.47-0.46c0.2-0.12,0.41-0.17,0.62-0.17c0.37,0,0.66,0.12,0.85,0.36c0.19,0.24,0.36,0.58,0.5,1.02l2.19,6.38
			l2.08-5.94c0.16-0.48,0.31-0.86,0.45-1.13c0.13-0.27,0.27-0.46,0.42-0.55c0.15-0.1,0.36-0.14,0.63-0.14c0.2,0,0.38,0.05,0.56,0.16
			c0.18,0.1,0.32,0.25,0.42,0.42c0.1,0.18,0.15,0.36,0.15,0.56c-0.03,0.12-0.07,0.29-0.13,0.51c-0.06,0.22-0.13,0.45-0.21,0.67
			l-3.38,8.85c-0.29,0.78-0.58,1.39-0.86,1.83c-0.28,0.44-0.65,0.79-1.11,1.02c-0.46,0.24-1.08,0.36-1.86,0.36
			c-0.76,0-1.33-0.08-1.71-0.25c-0.38-0.17-0.57-0.47-0.57-0.9c0-0.3,0.09-0.53,0.27-0.69c0.18-0.16,0.45-0.24,0.8-0.24
			c0.14,0,0.28,0.02,0.41,0.06c0.16,0.04,0.31,0.06,0.43,0.06c0.3,0,0.53-0.04,0.7-0.13c0.17-0.09,0.32-0.24,0.46-0.46
			C-457.11,776.84-456.95,776.51-456.78,776.09z"/>
	</g>
	<g>
		<path class="st12" d="M-419.21,765.45h0.62v-0.78c0-0.81,0.1-1.46,0.31-1.94c0.2-0.48,0.55-0.83,1.05-1.04
			c0.49-0.22,1.16-0.33,2.02-0.33c1.52,0,2.27,0.37,2.27,1.11c0,0.24-0.08,0.44-0.24,0.62c-0.15,0.17-0.34,0.26-0.56,0.26
			c-0.1,0-0.28-0.02-0.53-0.06c-0.24-0.03-0.45-0.06-0.62-0.06c-0.47,0-0.77,0.14-0.9,0.41c-0.13,0.28-0.2,0.67-0.2,1.18v0.62h0.63
			c0.99,0,1.48,0.3,1.48,0.9c0,0.42-0.13,0.69-0.39,0.8c-0.26,0.11-0.62,0.17-1.09,0.17H-416v6.87c0,0.51-0.12,0.9-0.37,1.17
			c-0.24,0.27-0.55,0.41-0.94,0.41c-0.37,0-0.67-0.13-0.92-0.41c-0.24-0.27-0.36-0.66-0.36-1.17v-6.87h-0.71
			c-0.39,0-0.68-0.08-0.89-0.26c-0.21-0.17-0.31-0.4-0.31-0.68C-420.52,765.76-420.08,765.45-419.21,765.45"/>
		<path class="st12" d="M-410.72,772.02v2.17c0,0.52-0.13,0.92-0.38,1.18c-0.25,0.27-0.56,0.39-0.94,0.39
			c-0.38,0-0.69-0.13-0.93-0.4c-0.24-0.26-0.36-0.66-0.36-1.17v-7.22c0-1.17,0.42-1.75,1.26-1.75c0.43,0,0.74,0.13,0.93,0.41
			c0.19,0.27,0.29,0.67,0.32,1.21c0.31-0.53,0.63-0.93,0.95-1.21c0.33-0.27,0.76-0.41,1.31-0.41c0.55,0,1.07,0.13,1.59,0.41
			c0.52,0.27,0.77,0.64,0.77,1.08c0,0.31-0.11,0.58-0.33,0.78c-0.22,0.21-0.45,0.31-0.71,0.31c-0.1,0-0.33-0.06-0.69-0.18
			c-0.37-0.11-0.69-0.17-0.96-0.17c-0.38,0-0.69,0.1-0.93,0.3c-0.24,0.21-0.43,0.5-0.56,0.89c-0.13,0.39-0.22,0.87-0.27,1.4
			C-410.7,770.58-410.72,771.24-410.72,772.02"/>
		<path class="st12" d="M-398.8,771.13h-5.07c0.01,0.59,0.13,1.11,0.36,1.56c0.23,0.45,0.54,0.79,0.92,1.02
			c0.38,0.23,0.8,0.34,1.27,0.34c0.31,0,0.59-0.03,0.85-0.11c0.25-0.07,0.5-0.19,0.74-0.34c0.24-0.15,0.46-0.32,0.66-0.5
			c0.2-0.17,0.47-0.42,0.79-0.72c0.13-0.11,0.32-0.17,0.57-0.17c0.27,0,0.48,0.07,0.65,0.22c0.17,0.15,0.24,0.35,0.24,0.62
			c0,0.24-0.09,0.51-0.27,0.82c-0.19,0.32-0.46,0.62-0.84,0.91c-0.38,0.29-0.84,0.53-1.4,0.71c-0.56,0.19-1.21,0.29-1.93,0.29
			c-1.67,0-2.96-0.47-3.89-1.42c-0.92-0.95-1.39-2.24-1.39-3.87c0-0.77,0.12-1.48,0.35-2.13c0.22-0.66,0.56-1.22,1-1.69
			c0.44-0.47,0.97-0.83,1.61-1.08c0.64-0.25,1.35-0.37,2.13-0.37c1.01,0,1.88,0.21,2.61,0.65c0.72,0.42,1.27,0.98,1.63,1.65
			c0.36,0.68,0.54,1.37,0.54,2.07c0,0.65-0.19,1.07-0.56,1.27C-397.6,771.03-398.13,771.13-398.8,771.13 M-403.88,769.66h4.7
			c-0.06-0.88-0.3-1.55-0.71-1.99c-0.42-0.44-0.96-0.66-1.64-0.66c-0.65,0-1.18,0.22-1.59,0.67
			C-403.54,768.12-403.79,768.78-403.88,769.66"/>
		<path class="st12" d="M-388.02,771.13h-5.07c0.01,0.59,0.13,1.11,0.35,1.56c0.23,0.45,0.54,0.79,0.92,1.02
			c0.38,0.23,0.8,0.34,1.27,0.34c0.31,0,0.59-0.03,0.84-0.11c0.26-0.07,0.51-0.19,0.75-0.34c0.24-0.15,0.46-0.32,0.66-0.5
			c0.2-0.17,0.46-0.42,0.79-0.72c0.13-0.11,0.33-0.17,0.57-0.17c0.27,0,0.48,0.07,0.65,0.22c0.16,0.15,0.24,0.35,0.24,0.62
			c0,0.24-0.09,0.51-0.27,0.82c-0.18,0.32-0.45,0.62-0.83,0.91c-0.37,0.29-0.84,0.53-1.4,0.71c-0.56,0.19-1.21,0.29-1.93,0.29
			c-1.67,0-2.96-0.47-3.89-1.42c-0.92-0.95-1.39-2.24-1.39-3.87c0-0.77,0.12-1.48,0.35-2.13c0.23-0.66,0.56-1.22,1-1.69
			c0.44-0.47,0.97-0.83,1.61-1.08c0.64-0.25,1.35-0.37,2.13-0.37c1.01,0,1.88,0.21,2.61,0.65c0.72,0.42,1.27,0.98,1.62,1.65
			c0.36,0.68,0.54,1.37,0.54,2.07c0,0.65-0.19,1.07-0.56,1.27C-386.82,771.03-387.34,771.13-388.02,771.13 M-393.09,769.66h4.7
			c-0.06-0.88-0.3-1.55-0.71-1.99c-0.42-0.44-0.96-0.66-1.64-0.66c-0.65,0-1.18,0.22-1.59,0.67
			C-392.75,768.12-393,768.78-393.09,769.66"/>
		<path class="st12" d="M-382.34,766.68v0.31c0.49-0.6,0.99-1.04,1.53-1.32c0.52-0.28,1.12-0.43,1.78-0.43
			c0.8,0,1.54,0.21,2.21,0.62c0.67,0.41,1.2,1.02,1.59,1.81c0.39,0.8,0.59,1.73,0.59,2.81c0,0.8-0.11,1.53-0.34,2.2
			c-0.22,0.67-0.54,1.23-0.93,1.68c-0.39,0.45-0.86,0.8-1.39,1.05c-0.54,0.24-1.11,0.36-1.73,0.36c-0.74,0-1.36-0.15-1.87-0.45
			c-0.5-0.29-0.98-0.73-1.44-1.31v3.89c0,1.14-0.42,1.71-1.24,1.71c-0.49,0-0.81-0.15-0.97-0.44c-0.15-0.3-0.23-0.72-0.23-1.29
			v-11.19c0-0.5,0.11-0.86,0.32-1.11c0.21-0.24,0.51-0.36,0.88-0.36c0.37,0,0.67,0.13,0.9,0.37
			C-382.45,765.85-382.34,766.2-382.34,766.68 M-377.25,770.45c0-0.68-0.11-1.27-0.31-1.76c-0.21-0.49-0.5-0.87-0.87-1.13
			c-0.37-0.26-0.78-0.4-1.23-0.4c-0.71,0-1.32,0.28-1.81,0.84c-0.49,0.57-0.74,1.4-0.74,2.49c0,1.03,0.24,1.83,0.74,2.41
			c0.49,0.57,1.09,0.86,1.81,0.86c0.43,0,0.83-0.13,1.2-0.37c0.37-0.25,0.66-0.63,0.88-1.13
			C-377.36,771.76-377.25,771.15-377.25,770.45"/>
		<path class="st12" d="M-372.04,764.01c-0.36,0-0.67-0.11-0.92-0.33c-0.26-0.22-0.39-0.53-0.39-0.94c0-0.37,0.13-0.67,0.4-0.91
			c0.26-0.23,0.57-0.36,0.91-0.36c0.34,0,0.63,0.11,0.89,0.32c0.26,0.22,0.39,0.53,0.39,0.95c0,0.4-0.13,0.71-0.38,0.94
			C-371.38,763.9-371.68,764.01-372.04,764.01 M-370.75,766.69v7.5c0,0.52-0.12,0.91-0.37,1.17c-0.25,0.27-0.56,0.4-0.94,0.4
			c-0.38,0-0.69-0.13-0.93-0.41c-0.23-0.28-0.36-0.66-0.36-1.17v-7.43c0-0.51,0.12-0.89,0.36-1.15c0.24-0.26,0.55-0.39,0.93-0.39
			c0.38,0,0.69,0.13,0.94,0.39C-370.88,765.87-370.75,766.23-370.75,766.69"/>
		<path class="st12" d="M-362.39,774.58l-2.28-3.77l-1.41,1.33v2.07c0,0.5-0.13,0.88-0.4,1.15c-0.26,0.27-0.57,0.41-0.91,0.41
			c-0.4,0-0.71-0.13-0.94-0.4c-0.23-0.26-0.34-0.66-0.34-1.17v-11.06c0-0.57,0.12-1.01,0.33-1.31c0.22-0.3,0.54-0.45,0.95-0.45
			c0.4,0,0.71,0.14,0.95,0.41c0.23,0.27,0.35,0.67,0.35,1.2v6.29l2.92-3.06c0.36-0.38,0.63-0.64,0.83-0.78
			c0.19-0.14,0.42-0.21,0.69-0.21c0.33,0,0.59,0.1,0.82,0.31c0.21,0.21,0.32,0.47,0.32,0.77c0,0.38-0.35,0.89-1.05,1.52l-1.38,1.26
			l2.66,4.18c0.19,0.31,0.34,0.54,0.42,0.71c0.08,0.16,0.13,0.32,0.13,0.46c0,0.41-0.12,0.73-0.34,0.98
			c-0.22,0.24-0.52,0.35-0.88,0.35c-0.32,0-0.56-0.08-0.73-0.26C-361.87,775.34-362.1,775.03-362.39,774.58"/>
		<path class="st12" d="M-356.76,775.77c-0.39,0-0.73-0.13-1.01-0.38c-0.29-0.25-0.43-0.61-0.43-1.06c0-0.39,0.14-0.72,0.41-1
			c0.28-0.28,0.61-0.42,1.01-0.42c0.4,0,0.74,0.14,1.02,0.41c0.28,0.28,0.42,0.61,0.42,1c0,0.45-0.14,0.81-0.42,1.06
			C-356.05,775.64-356.38,775.77-356.76,775.77"/>
		<path class="st12" d="M-343.86,772.56c0,0.32-0.1,0.67-0.29,1.03c-0.19,0.37-0.49,0.72-0.89,1.05c-0.39,0.33-0.89,0.6-1.49,0.8
			c-0.6,0.2-1.28,0.31-2.03,0.31c-1.61,0-2.86-0.47-3.76-1.4c-0.89-0.94-1.35-2.19-1.35-3.76c0-1.07,0.2-2.01,0.62-2.82
			c0.41-0.81,1-1.45,1.78-1.89c0.78-0.45,1.72-0.67,2.79-0.67c0.67,0,1.29,0.1,1.85,0.29c0.56,0.2,1.03,0.45,1.43,0.76
			c0.39,0.31,0.69,0.64,0.89,0.99c0.21,0.35,0.31,0.68,0.31,0.99c0,0.31-0.11,0.57-0.34,0.79c-0.23,0.21-0.52,0.32-0.84,0.32
			c-0.22,0-0.4-0.06-0.54-0.17c-0.14-0.11-0.3-0.29-0.48-0.54c-0.32-0.48-0.65-0.84-1-1.08c-0.34-0.24-0.78-0.36-1.31-0.36
			c-0.76,0-1.38,0.3-1.85,0.9c-0.47,0.6-0.7,1.42-0.7,2.45c0,0.49,0.06,0.94,0.18,1.35c0.12,0.41,0.29,0.76,0.52,1.04
			c0.23,0.29,0.5,0.5,0.83,0.65c0.32,0.15,0.68,0.23,1.06,0.23c0.52,0,0.97-0.12,1.34-0.36c0.38-0.24,0.7-0.61,0.99-1.1
			c0.16-0.29,0.33-0.52,0.51-0.68c0.18-0.16,0.41-0.25,0.68-0.25c0.32,0,0.58,0.12,0.79,0.36
			C-343.97,772.03-343.86,772.28-343.86,772.56"/>
		<path class="st12" d="M-332.67,770.49c0,0.77-0.12,1.48-0.36,2.14c-0.25,0.65-0.59,1.21-1.05,1.68c-0.46,0.47-1,0.83-1.63,1.08
			c-0.64,0.25-1.35,0.38-2.14,0.38c-0.79,0-1.49-0.13-2.12-0.38c-0.62-0.25-1.17-0.61-1.63-1.08c-0.46-0.48-0.81-1.03-1.05-1.68
			c-0.23-0.64-0.35-1.35-0.35-2.13c0-0.79,0.12-1.51,0.36-2.16c0.24-0.65,0.59-1.21,1.04-1.67c0.45-0.46,0.99-0.82,1.63-1.07
			c0.64-0.25,1.35-0.37,2.12-0.37c0.79,0,1.5,0.13,2.14,0.38c0.64,0.25,1.18,0.61,1.64,1.08c0.46,0.47,0.8,1.03,1.04,1.67
			C-332.79,769-332.67,769.71-332.67,770.49 M-335.27,770.49c0-1.06-0.23-1.88-0.7-2.47c-0.46-0.6-1.09-0.89-1.88-0.89
			c-0.51,0-0.96,0.13-1.34,0.39c-0.39,0.26-0.68,0.65-0.89,1.16c-0.21,0.51-0.31,1.11-0.31,1.8c0,0.68,0.1,1.27,0.31,1.77
			c0.21,0.51,0.5,0.9,0.89,1.17c0.38,0.27,0.83,0.4,1.35,0.4c0.79,0,1.41-0.3,1.88-0.89C-335.51,772.36-335.27,771.54-335.27,770.49
			"/>
		<path class="st12" d="M-322.78,770.69v3.45c0,0.55-0.12,0.95-0.37,1.23c-0.25,0.27-0.57,0.41-0.98,0.41
			c-0.39,0-0.71-0.14-0.95-0.41c-0.25-0.28-0.37-0.68-0.37-1.23V770c0-0.65-0.02-1.16-0.06-1.52c-0.05-0.35-0.17-0.66-0.36-0.88
			c-0.2-0.24-0.51-0.35-0.93-0.35c-0.85,0-1.41,0.29-1.68,0.88c-0.27,0.58-0.41,1.41-0.41,2.51v3.5c0,0.54-0.12,0.95-0.36,1.22
			c-0.25,0.27-0.57,0.41-0.96,0.41c-0.4,0-0.72-0.14-0.97-0.41c-0.25-0.28-0.38-0.69-0.38-1.22v-7.42c0-0.49,0.11-0.86,0.34-1.11
			c0.23-0.26,0.53-0.38,0.89-0.38c0.36,0,0.65,0.12,0.89,0.36c0.24,0.24,0.35,0.57,0.35,0.98v0.25c0.45-0.54,0.94-0.93,1.45-1.18
			c0.52-0.26,1.08-0.39,1.71-0.39c0.65,0,1.21,0.13,1.68,0.39c0.47,0.26,0.85,0.66,1.16,1.18c0.44-0.53,0.91-0.92,1.41-1.18
			c0.5-0.26,1.05-0.39,1.66-0.39c0.71,0,1.32,0.14,1.83,0.42c0.51,0.28,0.89,0.68,1.15,1.2c0.22,0.47,0.33,1.21,0.33,2.22v5.06
			c0,0.55-0.12,0.95-0.37,1.23c-0.25,0.27-0.57,0.41-0.98,0.41c-0.39,0-0.71-0.14-0.96-0.41c-0.25-0.28-0.38-0.69-0.38-1.22v-4.36
			c0-0.56-0.02-1-0.07-1.34c-0.05-0.34-0.18-0.62-0.38-0.85c-0.21-0.23-0.53-0.34-0.95-0.34c-0.34,0-0.67,0.11-0.97,0.31
			c-0.31,0.2-0.55,0.48-0.72,0.81C-322.68,768.8-322.78,769.57-322.78,770.69"/>
	</g>
	<g>
		<path class="st12" d="M-443.48,769.87c0,0,0-0.01,0-0.02C-443.48,769.86-443.48,769.86-443.48,769.87z"/>
		<path class="st12" d="M-443.35,770.7C-443.35,770.7-443.35,770.7-443.35,770.7c-0.05-0.24-0.09-0.47-0.12-0.7
			C-443.44,770.23-443.4,770.46-443.35,770.7z"/>
		<path class="st12" d="M-442.49,773.1c-0.01-0.01-0.01-0.02-0.02-0.03C-442.5,773.08-442.5,773.09-442.49,773.1z"/>
		<path class="st12" d="M-442.58,772.94c-0.02-0.04-0.04-0.09-0.06-0.13C-442.62,772.85-442.6,772.9-442.58,772.94z"/>
		<path class="st12" d="M-443.11,771.62c0.13,0.4,0.28,0.79,0.46,1.16C-442.83,772.4-442.98,772.01-443.11,771.62
			C-443.11,771.62-443.11,771.62-443.11,771.62z"/>
		<path class="st12" d="M-433.44,759.93c0.5,0,0.87,0.04,1.29,0.11l0.12-0.76c0,0-1.17-0.36-2.71-0.23l-0.12-0.42
			c0.48-0.1,0.84-0.53,0.84-1.03c0-0.58-0.47-1.05-1.06-1.05c-0.58,0-1.06,0.47-1.06,1.05c0,0.51,0.36,0.93,0.84,1.03l0.13,0.46
			c-1.63,0.22-2.94,0.86-2.94,0.86l0.23,0.71c0.99-0.33,1.85-0.53,2.62-0.61C-434.49,759.97-433.91,759.93-433.44,759.93z"/>
		<path class="st12" d="M-442.51,763.79L-442.51,763.79c0.04-0.06,0.08-0.1,0.12-0.15l-0.31-0.23l-0.49-0.36
			c-0.03,0.04-0.79,0.74-1.4,2.05c-0.03-0.04-0.06-0.08-0.09-0.12c-0.18-0.2-0.44-0.3-0.76-0.29c0,0-0.01,0-0.02,0
			c-0.2,0-0.34-0.07-0.43-0.15c0.09-0.11,0.14-0.26,0.14-0.41c0-0.37-0.3-0.67-0.67-0.67c-0.37,0-0.67,0.3-0.67,0.67
			c0,0.37,0.3,0.67,0.67,0.67c0.06,0,0.11-0.01,0.17-0.02c0.16,0.18,0.42,0.34,0.81,0.33c0.2,0,0.34,0.05,0.44,0.16
			c0.11,0.12,0.15,0.3,0.16,0.43c0,0,0,0,0,0c-0.44,1.19-0.31,2.67-0.31,2.67l1.06,0.04c0.02-0.54,0.1-1.48,0.37-2.23
			C-443.2,764.73-442.54,763.83-442.51,763.79z"/>
		<path class="st12" d="M-424.25,760.81c-0.37,0-0.67,0.3-0.67,0.67c0,0.06,0.01,0.11,0.02,0.17c-0.18,0.17-0.34,0.43-0.34,0.81
			c0,0.2-0.05,0.34-0.15,0.44c-0.08,0.08-0.19,0.12-0.29,0.14c-0.79-1.1-1.76-1.78-1.76-1.78l-0.76,0.81
			c0.57,0.52,1.16,1.17,1.73,1.99c0.39,0.56,0.8,1.29,1.14,2.01l1.02-0.49c0,0-0.47-1.16-1.13-2.19c0.11-0.04,0.23-0.1,0.33-0.19
			c0.2-0.18,0.3-0.44,0.29-0.76c0-0.21,0.07-0.35,0.15-0.44c0.12,0.09,0.26,0.14,0.41,0.14c0.37,0,0.67-0.3,0.67-0.67
			C-423.58,761.11-423.87,760.81-424.25,760.81z"/>
		<path class="st12" d="M-426.9,770.02c-1.41,0.69-3.73,1.59-6.78,2.02c-1.2,0.17-2.36,0.23-3.43,0.23c-1.39,0-2.62-0.1-3.56-0.22
			c-1.08-0.14-1.92-0.3-2.43-0.42c0.12,0.39,0.27,0.78,0.45,1.16c0,0.01,0.01,0.02,0.01,0.03c0.02,0.04,0.04,0.09,0.06,0.13
			c0.02,0.04,0.04,0.09,0.07,0.13c0.01,0.01,0.01,0.02,0.02,0.03c0.3,0.57,0.67,1.09,1.08,1.55c1.44,1.58,2.91,1.82,2.92,1.83
			l0.02,0l0.02,0.01c0.01,0,1.31,0.42,3.29,0.42c1.95,0,3.86-0.39,5.67-1.17c1.35-0.69,2.62-1.74,3.25-2.67
			c0.49-0.72,0.84-1.49,1.05-2.29c0.11-0.43,0.2-1.11,0.15-1.83C-425.43,769.22-426.05,769.6-426.9,770.02z"/>
		<path class="st12" d="M-442.06,764.12c-0.04,0.06-0.65,0.92-1.13,2.25c-0.36,1-0.35,2.44-0.35,2.46v0c0,0.34,0.02,0.68,0.06,1.01
			c0,0.01,0,0.01,0,0.02c0,0.04,0.01,0.08,0.02,0.13c0.03,0.23,0.07,0.47,0.12,0.7c0.7,0.18,4.88,1.15,9.55,0.5
			c2.93-0.41,5.15-1.27,6.5-1.93c1.12-0.54,1.84-1.04,2.12-1.24c-0.28-1.03-1.04-2.64-1.74-3.65c-2.01-2.87-4.17-3.6-5.28-3.78
			c-0.42-0.07-0.76-0.11-1.24-0.11c-0.45,0-1,0.04-1.74,0.11c-0.74,0.08-1.57,0.27-2.53,0.6c-1.35,0.45-2.57,1.16-3.53,2.05
			l-0.03,0.03C-441.42,763.41-441.72,763.69-442.06,764.12z M-429.79,763.46c0.96,0,1.74,0.78,1.74,1.74c0,0.96-0.78,1.74-1.74,1.74
			c-0.96,0-1.74-0.78-1.74-1.74C-431.53,764.24-430.75,763.46-429.79,763.46z M-438.03,763.39c1.56,0,2.82,1.26,2.82,2.82
			c0,1.56-1.26,2.81-2.82,2.81c-1.55,0-2.81-1.26-2.81-2.81C-440.85,764.65-439.59,763.39-438.03,763.39z"/>
	</g>
	<rect x="1044.47" y="919.88" style="fill:none;" width="12" height="37.5"/>
	<text transform="matrix(1 0 0 1 1044.4688 928.395)"><tspan x="0" y="0" style="font-family:'MyriadPro-Regular'; font-size:12px;">L</tspan><tspan x="0" y="14.4" style="font-family:'MyriadPro-Regular'; font-size:12px;">or</tspan><tspan x="0" y="28.8" style="font-family:'MyriadPro-Regular'; font-size:12px;">e</tspan></text>
</g>
</svg>
