<?xml version="1.0" encoding="utf-8"?>
<!-- Generator: Adobe Illustrator 23.0.6, SVG Export Plug-In . SVG Version: 6.00 Build 0)  -->
<svg version="1.1" id="Layer_1" xmlns="http://www.w3.org/2000/svg" xmlns:xlink="http://www.w3.org/1999/xlink" x="0px" y="0px"
	 viewBox="0 0 1154.79 792" style="enable-background:new 0 0 1154.79 792;" xml:space="preserve">
<style type="text/css">
	.st0{fill:none;}
	.st1{fill:#FFFFFF;}
	.st2{opacity:0.2;}
	.st3{opacity:0.4;}
	.st4{fill:url(#SVGID_1_);}
	.st5{fill:none;stroke:#07ADB8;stroke-width:3;stroke-linecap:round;stroke-linejoin:round;stroke-miterlimit:10;}
	.st6{fill:none;stroke:#FFFFFF;stroke-width:3;stroke-linecap:round;stroke-linejoin:round;stroke-miterlimit:10;}
	.st7{fill:none;stroke:#EEF3FA;stroke-width:3;stroke-linecap:round;stroke-linejoin:round;stroke-miterlimit:10;}
	.st8{fill:url(#SVGID_2_);}
	.st9{fill:url(#SVGID_3_);}
	.st10{fill:none;stroke:#02AEB8;stroke-width:3;stroke-linecap:round;stroke-linejoin:round;stroke-miterlimit:10;}
	.st11{fill:url(#SVGID_4_);}
	.st12{fill:none;stroke:#00ADB8;stroke-width:3;stroke-linecap:round;stroke-linejoin:round;stroke-miterlimit:10;}
	.st13{fill:url(#SVGID_5_);}
	.st14{fill:url(#SVGID_6_);}
	.st15{fill:url(#SVGID_7_);}
	.st16{fill:url(#SVGID_8_);}
</style>
<pattern  x="260.79" width="8.83" height="8.83" patternUnits="userSpaceOnUse" id="Unnamed_Pattern_2" viewBox="0 -8.83 8.83 8.83" style="overflow:visible;">
	<g>
		<rect x="0" y="-8.83" class="st0" width="8.83" height="8.83"/>
		<circle class="st1" cx="4.42" cy="-4.42" r="2.42"/>
	</g>
</pattern>
<g class="st2">
	<g>
		<g class="st3">
			
				<pattern  id="SVGID_1_" xlink:href="#Unnamed_Pattern_2" patternTransform="matrix(1.0918 0 0 1.0918 740.8022 631.8977)"  class="st3">
			</pattern>
			<path class="st4" d="M730.61,436.09c1.47-3.63,3.73-8.2,6.77-13.72c3.04-5.51,6.33-11.48,9.86-17.9
				c4.42-8.02,9.69-13.67,15.82-16.96c6.13-3.29,14.65-5.84,25.59-7.66c4.64-0.84,8.39-1.59,11.23-2.24
				c2.84-0.65,5.27-1.73,7.28-3.24c2.01-1.5,3.91-3.66,5.72-6.46c1.8-2.8,4.03-6.6,6.68-11.41c3.87-7.02,5.74-12.32,5.63-15.91
				c-0.12-3.59-3.08-6.99-8.89-10.19c-5.82-3.21-10.32-3.93-13.52-2.16c-3.2,1.77-6.73,6.16-10.6,13.18
				c-1.55,2.81-2.63,4.77-3.23,5.87c-0.61,1.1-1.26,2.51-1.94,4.23l-39.4-21.71c0.74-3.25,1.96-6.76,3.65-10.54
				c1.69-3.77,4.24-8.77,7.67-14.99c5.3-9.62,10.67-17.12,16.12-22.49c5.44-5.37,11.39-8.82,17.86-10.35
				c6.46-1.53,13.64-1.17,21.55,1.09c7.9,2.26,16.97,6.21,27.19,11.85c11.23,6.19,19.9,12.28,26.01,18.26
				c6.11,5.98,10.03,12.39,11.76,19.22s1.42,14.38-0.91,22.63c-2.34,8.26-6.42,17.7-12.28,28.33c-4.42,8.02-8.3,14.71-11.64,20.05
				c-3.34,5.35-6.54,9.73-9.6,13.14c-3.06,3.41-6.09,6.19-9.1,8.32c-3.01,2.14-6.43,3.84-10.27,5.12
				c-5.82,2.02-11.09,3.17-15.82,3.44c-4.73,0.27-9.32,1.14-13.78,2.6c-1.56,0.45-3.02,1.08-4.38,1.9
				c-1.37,0.81-2.94,2.37-4.72,4.65c-1.79,2.29-3.89,5.5-6.3,9.66c-2.42,4.15-5.57,9.74-9.43,16.76L730.61,436.09z M689.37,502.37
				l25.03-45.41l47.22,26.02l-25.03,45.41L689.37,502.37z"/>
		</g>
		<g>
			<path class="st5" d="M722.8,419.33c1.47-3.63,3.73-8.2,6.77-13.72c3.04-5.51,6.33-11.48,9.86-17.9
				c4.42-8.02,9.69-13.67,15.82-16.96c6.13-3.29,14.65-5.84,25.59-7.66c4.64-0.84,8.39-1.59,11.23-2.24
				c2.84-0.65,5.27-1.73,7.28-3.24c2.01-1.5,3.91-3.66,5.72-6.46c1.8-2.8,4.03-6.6,6.68-11.41c3.87-7.02,5.74-12.32,5.63-15.91
				c-0.12-3.59-3.08-6.99-8.89-10.19c-5.82-3.21-10.32-3.93-13.52-2.16c-3.2,1.77-6.73,6.16-10.6,13.18
				c-1.55,2.81-2.63,4.77-3.23,5.87c-0.61,1.1-1.26,2.51-1.94,4.23l-39.4-21.71c0.74-3.25,1.96-6.76,3.65-10.54
				c1.69-3.77,4.24-8.77,7.67-14.99c5.3-9.62,10.67-17.12,16.12-22.49c5.44-5.37,11.39-8.82,17.86-10.35
				c6.46-1.53,13.64-1.17,21.55,1.09c7.9,2.26,16.97,6.21,27.19,11.85c11.23,6.19,19.9,12.28,26.01,18.26
				c6.11,5.98,10.03,12.39,11.76,19.22c1.73,6.83,1.42,14.38-0.91,22.63c-2.34,8.26-6.42,17.7-12.28,28.33
				c-4.42,8.02-8.3,14.71-11.64,20.05c-3.34,5.35-6.54,9.73-9.6,13.14c-3.06,3.41-6.09,6.19-9.1,8.32
				c-3.01,2.14-6.43,3.84-10.27,5.12c-5.82,2.02-11.09,3.17-15.82,3.44c-4.73,0.27-9.32,1.14-13.78,2.6
				c-1.56,0.45-3.02,1.08-4.38,1.9c-1.37,0.81-2.94,2.37-4.72,4.65c-1.79,2.29-3.89,5.5-6.3,9.66c-2.42,4.15-5.57,9.74-9.43,16.76
				L722.8,419.33z M681.57,485.62l25.03-45.41l47.22,26.02l-25.03,45.41L681.57,485.62z"/>
		</g>
	</g>
	<g>
		<g>
			<path class="st1" d="M748,201.55c-1.8,0-3.26-1.46-3.26-3.26c0-1.8,1.46-3.26,3.26-3.26c1.8,0,3.26,1.46,3.26,3.26
				C751.26,200.09,749.8,201.55,748,201.55z"/>
			<path class="st1" d="M748,216.59c-1.8,0-3.26-1.46-3.26-3.26c0-1.8,1.46-3.26,3.26-3.26c1.8,0,3.26,1.46,3.26,3.26
				C751.26,215.13,749.8,216.59,748,216.59z"/>
		</g>
		<g>
			<path class="st1" d="M729.82,201.55c-1.8,0-3.26-1.46-3.26-3.26c0-1.8,1.46-3.26,3.26-3.26c1.8,0,3.26,1.46,3.26,3.26
				C733.08,200.09,731.62,201.55,729.82,201.55z"/>
			<path class="st1" d="M729.82,216.59c-1.8,0-3.26-1.46-3.26-3.26c0-1.8,1.46-3.26,3.26-3.26c1.8,0,3.26,1.46,3.26,3.26
				C733.08,215.13,731.62,216.59,729.82,216.59z"/>
		</g>
		<g>
			<circle class="st1" cx="711.64" cy="198.29" r="3.26"/>
			<circle class="st1" cx="711.64" cy="213.33" r="3.26"/>
		</g>
		<g>
			<path class="st1" d="M693.47,201.55c-1.8,0-3.26-1.46-3.26-3.26c0-1.8,1.46-3.26,3.26-3.26c1.8,0,3.26,1.46,3.26,3.26
				C696.73,200.09,695.27,201.55,693.47,201.55z"/>
			<path class="st1" d="M693.47,216.59c-1.8,0-3.26-1.46-3.26-3.26c0-1.8,1.46-3.26,3.26-3.26c1.8,0,3.26,1.46,3.26,3.26
				C696.73,215.13,695.27,216.59,693.47,216.59z"/>
		</g>
	</g>
	<g>
		<g class="st3">
			<path class="st1" d="M245.41,550.57c4.69,0.79,10.69,2.26,18.02,4.41c7.33,2.15,15.25,4.47,23.78,6.97
				c10.66,3.12,18.74,7.88,24.25,14.26c5.51,6.39,10.78,15.81,15.8,28.28c2.21,5.27,4.08,9.51,5.61,12.71
				c1.52,3.19,3.44,5.78,5.76,7.76c2.31,1.98,5.36,3.67,9.15,5.07c3.78,1.39,8.88,3.03,15.27,4.91c9.33,2.73,16.1,3.56,20.32,2.48
				c4.22-1.08,7.47-5.48,9.73-13.21c2.26-7.73,1.93-13.26-1.01-16.57c-2.93-3.32-9.07-6.34-18.39-9.08
				c-3.74-1.09-6.33-1.86-7.8-2.28c-1.47-0.43-3.3-0.83-5.51-1.18l15.34-52.36c4.04,0.02,8.52,0.54,13.44,1.55
				c4.91,1.01,11.5,2.72,19.76,5.14c12.79,3.75,23.08,8.13,30.87,13.16c7.78,5.03,13.44,11.17,16.96,18.42
				c3.52,7.25,4.97,15.85,4.38,25.8c-0.6,9.95-2.89,21.72-6.87,35.31c-4.37,14.92-9.3,26.79-14.77,35.6
				c-5.48,8.81-12.03,15.14-19.67,18.98c-7.64,3.84-16.65,5.46-27.04,4.88c-10.39-0.59-22.65-2.95-36.77-7.08
				c-10.66-3.12-19.6-5.96-26.81-8.5c-7.22-2.55-13.24-5.18-18.08-7.9c-4.85-2.72-8.93-5.59-12.24-8.58c-3.32-3-6.24-6.6-8.77-10.81
				c-3.93-6.36-6.67-12.3-8.24-17.82c-1.57-5.53-3.8-10.74-6.7-15.64c-0.94-1.73-2.08-3.29-3.4-4.69c-1.32-1.41-3.58-2.86-6.75-4.36
				c-3.18-1.51-7.54-3.15-13.1-4.92c-5.56-1.78-13-4.03-22.33-6.76L245.41,550.57z M156.08,519.19l60.36,17.68l-18.38,62.76
				l-60.36-17.68L156.08,519.19z"/>
		</g>
		<g>
			<path class="st6" d="M263.19,536.92c4.69,0.79,10.69,2.26,18.02,4.41c7.33,2.15,15.25,4.47,23.78,6.97
				c10.66,3.12,18.74,7.88,24.25,14.26c5.51,6.39,10.78,15.81,15.8,28.28c2.21,5.27,4.08,9.51,5.61,12.71
				c1.52,3.19,3.44,5.78,5.76,7.76c2.31,1.98,5.36,3.67,9.15,5.07c3.78,1.39,8.88,3.03,15.27,4.91c9.32,2.73,16.1,3.56,20.32,2.48
				c4.22-1.08,7.47-5.48,9.73-13.21c2.26-7.73,1.93-13.26-1.01-16.57c-2.93-3.32-9.07-6.34-18.39-9.08
				c-3.74-1.09-6.33-1.86-7.8-2.28c-1.47-0.43-3.3-0.83-5.51-1.18l15.34-52.36c4.04,0.02,8.52,0.54,13.44,1.55
				c4.91,1.01,11.5,2.72,19.76,5.14c12.79,3.75,23.08,8.13,30.87,13.16c7.78,5.03,13.44,11.17,16.96,18.42
				c3.52,7.25,4.97,15.85,4.38,25.8c-0.6,9.95-2.89,21.72-6.87,35.31c-4.37,14.92-9.3,26.79-14.77,35.6
				c-5.48,8.81-12.03,15.14-19.67,18.98c-7.64,3.84-16.65,5.46-27.04,4.88c-10.39-0.59-22.65-2.95-36.77-7.08
				c-10.66-3.12-19.6-5.96-26.81-8.5c-7.22-2.55-13.24-5.18-18.08-7.9c-4.85-2.72-8.93-5.59-12.24-8.58c-3.32-3-6.24-6.6-8.77-10.81
				c-3.93-6.36-6.67-12.3-8.24-17.82c-1.57-5.53-3.8-10.74-6.7-15.64c-0.94-1.73-2.08-3.29-3.4-4.69c-1.32-1.41-3.58-2.86-6.75-4.36
				c-3.18-1.51-7.54-3.15-13.1-4.92c-5.56-1.78-13-4.03-22.33-6.76L263.19,536.92z M173.86,505.54l60.36,17.68l-18.38,62.76
				l-60.36-17.68L173.86,505.54z"/>
		</g>
	</g>
	<g>
		<g class="st3">
			<path class="st1" d="M869.59,678.1c-2.21-2.17-4.88-5.2-8-9.09c-3.12-3.89-6.5-8.09-10.14-12.62c-4.54-5.65-7.1-11.22-7.66-16.7
				c-0.56-5.48,0.13-12.49,2.1-21.05c0.78-3.65,1.37-6.62,1.74-8.9c0.38-2.28,0.32-4.38-0.18-6.31c-0.5-1.92-1.5-3.97-3.01-6.13
				c-1.51-2.16-3.62-4.94-6.35-8.33c-3.97-4.95-7.29-7.92-9.96-8.92c-2.67-1-6.05,0.15-10.14,3.44c-4.1,3.29-5.98,6.38-5.65,9.25
				c0.33,2.87,2.49,6.78,6.46,11.73c1.59,1.98,2.7,3.36,3.32,4.13c0.63,0.78,1.46,1.68,2.51,2.69l-27.77,22.31
				c-2.15-1.52-4.36-3.47-6.62-5.85c-2.26-2.37-5.14-5.75-8.66-10.13c-5.45-6.78-9.32-12.97-11.61-18.58c-2.29-5.6-3.03-11-2.2-16.2
				c0.82-5.2,3.26-10.35,7.29-15.45c4.04-5.1,9.66-10.55,16.87-16.35c7.91-6.36,14.99-10.87,21.21-13.55
				c6.22-2.67,12.1-3.61,17.62-2.82c5.52,0.8,10.96,3.29,16.3,7.48c5.35,4.2,11.03,10.04,17.05,17.53
				c4.54,5.65,8.27,10.51,11.18,14.57c2.91,4.06,5.16,7.72,6.73,10.99c1.58,3.27,2.7,6.33,3.35,9.17c0.66,2.85,0.88,5.87,0.66,9.07
				c-0.27,4.87-1.02,9.08-2.25,12.62c-1.22,3.55-1.97,7.17-2.25,10.88c-0.14,1.28-0.12,2.54,0.07,3.78
				c0.18,1.25,0.85,2.87,1.99,4.86c1.14,2,2.86,4.5,5.18,7.53c2.31,3.03,5.46,7.01,9.43,11.96L869.59,678.1z M905.71,728.27
				l-25.72-32.01l33.29-26.74l25.72,32.01L905.71,728.27z"/>
		</g>
		<g>
			<path class="st6" d="M854.96,678.77c-2.21-2.17-4.88-5.21-8-9.09c-3.12-3.89-6.5-8.09-10.14-12.62
				c-4.54-5.65-7.1-11.22-7.66-16.7c-0.56-5.48,0.13-12.49,2.1-21.05c0.78-3.65,1.37-6.62,1.74-8.9c0.38-2.28,0.32-4.38-0.18-6.31
				c-0.5-1.92-1.5-3.97-3.01-6.13c-1.51-2.16-3.62-4.94-6.35-8.33c-3.97-4.95-7.29-7.92-9.96-8.92c-2.67-1-6.05,0.15-10.14,3.44
				c-4.1,3.29-5.98,6.38-5.65,9.25c0.33,2.87,2.49,6.78,6.46,11.73c1.59,1.98,2.7,3.36,3.32,4.13c0.63,0.78,1.46,1.68,2.51,2.69
				l-27.77,22.31c-2.15-1.52-4.36-3.47-6.62-5.85c-2.26-2.37-5.14-5.75-8.66-10.13c-5.45-6.78-9.32-12.97-11.61-18.58
				c-2.29-5.6-3.03-11-2.2-16.2c0.82-5.2,3.26-10.35,7.29-15.45c4.04-5.1,9.66-10.55,16.87-16.35c7.91-6.36,14.99-10.87,21.21-13.55
				c6.22-2.67,12.1-3.61,17.62-2.82c5.52,0.8,10.96,3.29,16.3,7.48c5.35,4.2,11.03,10.04,17.05,17.53
				c4.54,5.65,8.27,10.51,11.18,14.57c2.91,4.06,5.16,7.72,6.73,10.99c1.58,3.27,2.7,6.33,3.35,9.17c0.66,2.85,0.88,5.87,0.66,9.07
				c-0.27,4.87-1.02,9.08-2.25,12.62c-1.22,3.55-1.97,7.17-2.25,10.88c-0.14,1.28-0.12,2.54,0.07,3.78
				c0.18,1.25,0.85,2.87,1.99,4.86c1.14,2,2.86,4.5,5.18,7.53c2.31,3.03,5.46,7.01,9.43,11.96L854.96,678.77z M891.09,728.94
				l-25.72-32.01l33.29-26.74l25.72,32.01L891.09,728.94z"/>
		</g>
	</g>
	<g>
		<g class="st3">
			<path class="st1" d="M816.13,177.17c-3.74-2.34-8.38-5.72-13.92-10.16c-5.53-4.43-11.52-9.23-17.96-14.39
				c-8.05-6.45-13.31-13.39-15.78-20.82c-2.47-7.43-3.66-17.39-3.57-29.88c-0.04-5.31-0.14-9.61-0.32-12.9
				c-0.18-3.28-0.91-6.18-2.2-8.7c-1.28-2.52-3.31-5.04-6.06-7.59c-2.76-2.53-6.55-5.74-11.38-9.61
				c-7.04-5.64-12.57-8.75-16.57-9.32c-4.01-0.56-8.35,2.07-13.02,7.9c-4.68,5.84-6.34,10.7-5,14.59c1.34,3.89,5.54,8.65,12.58,14.3
				c2.82,2.26,4.78,3.83,5.89,4.72c1.11,0.89,2.55,1.88,4.32,2.96l-31.69,39.54c-3.46-1.45-7.12-3.48-10.99-6.08
				c-3.86-2.6-8.91-6.4-15.15-11.4c-9.66-7.74-16.94-15.14-21.85-22.22c-4.91-7.07-7.59-14.34-8.05-21.82
				c-0.46-7.47,1.33-15.37,5.37-23.71c4.03-8.33,10.16-17.63,18.39-27.89c9.03-11.27,17.46-19.72,25.27-25.35
				c7.82-5.63,15.68-8.74,23.6-9.34c7.91-0.6,16.23,1.19,24.94,5.37c8.72,4.18,18.41,10.54,29.07,19.08
				c8.05,6.45,14.72,12.05,20.01,16.78c5.3,4.74,9.54,9.13,12.74,13.18c3.2,4.05,5.69,7.95,7.48,11.7
				c1.79,3.75,3.03,7.88,3.71,12.39c1.13,6.85,1.38,12.92,0.77,18.21c-0.61,5.3-0.53,10.56,0.23,15.8c0.2,1.82,0.62,3.56,1.26,5.23
				c0.64,1.67,2.06,3.72,4.25,6.14c2.19,2.42,5.36,5.37,9.51,8.86c4.14,3.49,9.74,8.05,16.78,13.7L816.13,177.17z M881.75,235.7
				l-45.58-36.52l37.98-47.39l45.58,36.52L881.75,235.7z"/>
		</g>
		<g>
			<path class="st7" d="M796.03,182.61c-3.74-2.34-8.38-5.72-13.92-10.16c-5.53-4.43-11.52-9.23-17.96-14.39
				c-8.05-6.45-13.31-13.39-15.78-20.82c-2.47-7.43-3.66-17.39-3.57-29.88c-0.04-5.31-0.14-9.61-0.32-12.9
				c-0.18-3.28-0.91-6.18-2.2-8.7c-1.28-2.52-3.31-5.04-6.07-7.59c-2.76-2.53-6.55-5.74-11.38-9.61
				c-7.04-5.64-12.57-8.75-16.57-9.32c-4.01-0.56-8.35,2.07-13.02,7.9c-4.68,5.84-6.34,10.7-5,14.59c1.34,3.89,5.54,8.65,12.58,14.3
				c2.82,2.26,4.78,3.83,5.89,4.72c1.11,0.89,2.55,1.88,4.32,2.96l-31.69,39.54c-3.46-1.45-7.12-3.48-10.99-6.08
				c-3.86-2.6-8.91-6.4-15.15-11.4c-9.66-7.74-16.94-15.14-21.85-22.22c-4.91-7.07-7.59-14.34-8.05-21.82
				c-0.46-7.47,1.33-15.37,5.37-23.71c4.03-8.33,10.16-17.63,18.39-27.89c9.03-11.27,17.46-19.72,25.27-25.35
				c7.82-5.63,15.68-8.74,23.6-9.34s16.23,1.19,24.94,5.37c8.72,4.18,18.41,10.54,29.07,19.08c8.05,6.45,14.72,12.05,20.01,16.78
				c5.3,4.74,9.54,9.13,12.74,13.18c3.2,4.05,5.69,7.95,7.48,11.7c1.79,3.75,3.03,7.88,3.71,12.39c1.13,6.85,1.38,12.92,0.77,18.21
				c-0.61,5.3-0.53,10.56,0.23,15.8c0.2,1.82,0.62,3.56,1.26,5.23c0.64,1.67,2.06,3.72,4.25,6.14c2.19,2.42,5.36,5.37,9.51,8.86
				c4.14,3.49,9.74,8.05,16.78,13.7L796.03,182.61z M861.65,241.14l-45.58-36.52l37.98-47.39l45.58,36.52L861.65,241.14z"/>
		</g>
	</g>
	<g>
		<g class="st3">
			<path class="st1" d="M286.79,308.63c2.95-3.35,7.1-7.42,12.44-12.21c5.34-4.79,11.12-9.97,17.33-15.54
				c7.77-6.96,15.57-11.07,23.39-12.3c7.83-1.23,17.96-0.78,30.4,1.38c5.31,0.84,9.62,1.45,12.92,1.81c3.3,0.37,6.32,0.11,9.05-0.75
				c2.72-0.86,5.58-2.47,8.57-4.8c2.98-2.33,6.82-5.59,11.48-9.77c6.8-6.09,10.81-11.1,12.04-15c1.23-3.91-0.68-8.67-5.73-14.3
				c-5.05-5.64-9.63-8.1-13.73-7.4c-4.1,0.7-9.55,4.1-16.35,10.19c-2.72,2.44-4.62,4.14-5.68,5.09c-1.07,0.96-2.3,2.23-3.67,3.82
				l-34.22-38.16c2.02-3.21,4.65-6.53,7.89-9.96c3.24-3.43,7.86-7.84,13.88-13.24c9.32-8.36,17.91-14.4,25.79-18.13
				c7.87-3.73,15.57-5.2,23.1-4.42c7.53,0.78,15.12,3.87,22.77,9.28c7.65,5.4,15.91,13.06,24.79,22.96
				c9.75,10.87,16.79,20.68,21.12,29.41c4.32,8.73,6.13,17.1,5.42,25.09c-0.71,8-3.88,16-9.48,24.01
				c-5.62,8.01-13.56,16.63-23.85,25.85c-7.77,6.97-14.46,12.7-20.06,17.19c-5.6,4.5-10.69,8.01-15.26,10.53
				c-4.57,2.52-8.88,4.37-12.91,5.53c-4.04,1.17-8.36,1.72-12.97,1.65c-7.02-0.01-13.12-0.76-18.3-2.24
				c-5.19-1.48-10.45-2.28-15.8-2.39c-1.85-0.1-3.65,0.03-5.42,0.4c-1.78,0.36-4.05,1.44-6.83,3.23c-2.78,1.79-6.25,4.46-10.41,8.02
				c-4.17,3.56-9.65,8.39-16.45,14.48L286.79,308.63z M217.52,364.43l43.99-39.44l41.01,45.74l-43.99,39.44L217.52,364.43z"/>
		</g>
		<g>
			<path class="st6" d="M284.69,287.68c2.95-3.35,7.1-7.42,12.44-12.21c5.34-4.79,11.12-9.97,17.33-15.54
				c7.77-6.96,15.57-11.07,23.39-12.3c7.83-1.23,17.96-0.78,30.4,1.38c5.31,0.84,9.62,1.45,12.92,1.81c3.3,0.37,6.32,0.11,9.05-0.75
				c2.72-0.86,5.58-2.47,8.57-4.8c2.98-2.33,6.82-5.59,11.48-9.77c6.8-6.09,10.81-11.1,12.04-15c1.23-3.91-0.68-8.67-5.73-14.3
				c-5.05-5.64-9.63-8.1-13.73-7.4c-4.1,0.7-9.55,4.1-16.35,10.19c-2.72,2.44-4.62,4.14-5.68,5.09c-1.07,0.96-2.3,2.23-3.67,3.82
				l-34.22-38.16c2.02-3.21,4.65-6.53,7.89-9.96c3.24-3.43,7.86-7.84,13.88-13.24c9.32-8.36,17.91-14.4,25.79-18.13
				c7.87-3.73,15.57-5.2,23.1-4.42c7.53,0.78,15.12,3.87,22.77,9.28c7.65,5.4,15.91,13.06,24.79,22.96
				c9.75,10.87,16.79,20.68,21.12,29.41c4.32,8.73,6.13,17.1,5.42,25.09c-0.71,8-3.88,16-9.48,24.01
				c-5.62,8.01-13.56,16.63-23.85,25.85c-7.77,6.97-14.46,12.7-20.06,17.19c-5.61,4.5-10.69,8.01-15.26,10.53
				c-4.57,2.52-8.88,4.37-12.91,5.53c-4.04,1.17-8.36,1.72-12.97,1.65c-7.02-0.01-13.12-0.76-18.3-2.24
				c-5.19-1.48-10.45-2.28-15.8-2.39c-1.85-0.1-3.65,0.03-5.42,0.4c-1.78,0.36-4.05,1.44-6.83,3.23c-2.78,1.79-6.25,4.46-10.41,8.02
				c-4.17,3.56-9.65,8.39-16.45,14.48L284.69,287.68z M215.42,343.48l43.99-39.44l41.01,45.74l-43.99,39.44L215.42,343.48z"/>
		</g>
	</g>
	<g>
		<g class="st3">
			
				<pattern  id="SVGID_2_" xlink:href="#Unnamed_Pattern_2" patternTransform="matrix(1.0918 0 0 1.0918 740.8022 631.8977)"  class="st3">
			</pattern>
			<path class="st8" d="M459.69,477.91c-1.81-2.11-3.95-5.01-6.44-8.72c-2.49-3.7-5.18-7.71-8.07-12.02
				c-3.62-5.38-5.47-10.54-5.56-15.47c-0.08-4.93,1.07-11.13,3.48-18.61c0.98-3.19,1.72-5.8,2.23-7.8c0.51-2,0.62-3.88,0.32-5.64
				c-0.3-1.75-1.04-3.65-2.21-5.7c-1.18-2.04-2.85-4.68-5.02-7.91c-3.17-4.71-5.9-7.62-8.2-8.71c-2.3-1.09-5.4-0.33-9.31,2.29
				c-3.91,2.62-5.82,5.23-5.74,7.82c0.08,2.59,1.7,6.24,4.86,10.95c1.27,1.89,2.15,3.2,2.65,3.94c0.5,0.74,1.17,1.61,2.03,2.59
				l-26.46,17.78c-1.8-1.52-3.62-3.43-5.45-5.72c-1.83-2.29-4.15-5.52-6.95-9.69c-4.34-6.46-7.32-12.28-8.94-17.45
				c-1.62-5.17-1.86-10.04-0.73-14.61c1.13-4.57,3.69-8.97,7.68-13.22c3.99-4.24,9.42-8.67,16.29-13.29
				c7.54-5.07,14.19-8.55,19.94-10.46c5.75-1.91,11.06-2.3,15.92-1.17c4.86,1.13,9.52,3.77,13.96,7.91
				c4.45,4.15,9.07,9.79,13.86,16.92c3.62,5.39,6.57,10,8.86,13.84c2.29,3.84,4.01,7.27,5.17,10.31c1.16,3.03,1.92,5.85,2.29,8.43
				c0.37,2.59,0.34,5.3-0.11,8.13c-0.61,4.32-1.6,8.02-2.96,11.08c-1.36,3.07-2.31,6.24-2.83,9.53c-0.22,1.13-0.3,2.25-0.22,3.38
				c0.07,1.13,0.54,2.62,1.4,4.48c0.86,1.87,2.21,4.23,4.04,7.11c1.83,2.87,4.33,6.67,7.5,11.38L459.69,477.91z M488.07,525.39
				l-20.49-30.5l31.71-21.3l20.49,30.5L488.07,525.39z"/>
		</g>
		<g>
			<path class="st5" d="M446.61,477.39c-1.81-2.11-3.95-5.01-6.44-8.72c-2.49-3.7-5.18-7.71-8.07-12.02
				c-3.62-5.38-5.47-10.54-5.56-15.47c-0.08-4.93,1.07-11.13,3.48-18.61c0.98-3.19,1.72-5.8,2.23-7.8c0.51-2,0.62-3.88,0.32-5.64
				c-0.3-1.75-1.04-3.65-2.21-5.7c-1.18-2.04-2.85-4.68-5.02-7.91c-3.17-4.71-5.9-7.62-8.2-8.71c-2.3-1.09-5.4-0.33-9.31,2.29
				c-3.91,2.62-5.82,5.23-5.74,7.82c0.08,2.59,1.7,6.24,4.86,10.95c1.27,1.89,2.15,3.2,2.65,3.94c0.5,0.74,1.17,1.61,2.03,2.59
				l-26.46,17.78c-1.8-1.52-3.62-3.43-5.45-5.72c-1.83-2.29-4.15-5.52-6.95-9.69c-4.34-6.46-7.32-12.28-8.94-17.45
				c-1.62-5.17-1.86-10.04-0.73-14.61c1.13-4.57,3.69-8.97,7.68-13.22c3.99-4.24,9.42-8.67,16.29-13.29
				c7.54-5.07,14.19-8.55,19.94-10.46c5.75-1.91,11.06-2.3,15.92-1.17c4.86,1.13,9.52,3.77,13.96,7.91
				c4.45,4.15,9.07,9.79,13.86,16.93c3.62,5.39,6.57,10,8.86,13.84c2.29,3.84,4.01,7.27,5.17,10.31c1.16,3.03,1.92,5.85,2.29,8.43
				c0.37,2.59,0.34,5.3-0.11,8.13c-0.61,4.32-1.6,8.02-2.96,11.08c-1.36,3.07-2.31,6.24-2.83,9.53c-0.22,1.13-0.3,2.25-0.22,3.38
				c0.07,1.13,0.54,2.62,1.4,4.48c0.86,1.87,2.21,4.23,4.04,7.11c1.83,2.87,4.33,6.67,7.5,11.38L446.61,477.39z M474.98,524.87
				l-20.49-30.5l31.71-21.3l20.49,30.5L474.98,524.87z"/>
		</g>
	</g>
	<g>
		<g class="st3">
			<path class="st1" d="M582.06,488.62c1.68,1.53,3.71,3.68,6.1,6.44c2.39,2.76,4.97,5.74,7.75,8.95c3.47,4.01,5.49,8.01,6.05,12.01
				c0.56,3.99,0.23,9.14-0.97,15.45c-0.48,2.69-0.82,4.88-1.04,6.56c-0.22,1.67-0.12,3.21,0.3,4.61c0.42,1.39,1.2,2.86,2.36,4.4
				c1.16,1.54,2.78,3.52,4.86,5.92c3.04,3.51,5.54,5.6,7.52,6.26c1.98,0.66,4.42-0.27,7.33-2.79c2.91-2.52,4.21-4.82,3.89-6.91
				c-0.32-2.09-2-4.89-5.04-8.4c-1.22-1.41-2.06-2.38-2.54-2.93c-0.48-0.55-1.11-1.19-1.91-1.9l19.71-17.06
				c1.62,1.06,3.28,2.42,4.99,4.1c1.71,1.68,3.91,4.07,6.61,7.18c4.17,4.82,7.16,9.24,8.99,13.28c1.82,4.03,2.51,7.96,2.04,11.79
				c-0.46,3.82-2.1,7.65-4.92,11.49c-2.82,3.84-6.78,7.97-11.9,12.4c-5.62,4.86-10.67,8.35-15.15,10.47
				c-4.48,2.12-8.75,2.96-12.81,2.53c-4.06-0.43-8.1-2.11-12.12-5.04c-4.02-2.93-8.33-7.05-12.93-12.36
				c-3.47-4.01-6.33-7.46-8.56-10.35c-2.24-2.89-3.98-5.51-5.22-7.85c-1.24-2.35-2.14-4.55-2.7-6.61c-0.56-2.06-0.8-4.27-0.72-6.61
				c0.07-3.57,0.51-6.67,1.31-9.29c0.8-2.63,1.25-5.29,1.35-8.01c0.07-0.94,0.02-1.86-0.15-2.76c-0.17-0.91-0.7-2.07-1.58-3.5
				c-0.88-1.43-2.21-3.22-3.99-5.37c-1.77-2.15-4.18-4.98-7.22-8.49L582.06,488.62z M554.31,452.89l19.66,22.72l-23.63,20.44
				l-19.66-22.72L554.31,452.89z"/>
		</g>
		<g>
			<path class="st7" d="M592.73,487.74c1.68,1.53,3.71,3.68,6.1,6.44c2.39,2.76,4.97,5.74,7.75,8.95c3.47,4.01,5.49,8.01,6.05,12.01
				c0.56,3.99,0.23,9.14-0.97,15.45c-0.48,2.69-0.82,4.88-1.04,6.56c-0.22,1.67-0.12,3.21,0.3,4.61c0.42,1.39,1.2,2.86,2.36,4.4
				c1.16,1.54,2.78,3.52,4.86,5.92c3.04,3.51,5.55,5.6,7.52,6.26c1.98,0.66,4.42-0.27,7.33-2.79c2.91-2.52,4.21-4.82,3.89-6.91
				c-0.32-2.09-2-4.89-5.04-8.41c-1.22-1.41-2.06-2.38-2.54-2.93c-0.48-0.55-1.11-1.19-1.91-1.9l19.71-17.06
				c1.62,1.06,3.28,2.42,4.99,4.1c1.71,1.68,3.91,4.07,6.61,7.18c4.17,4.82,7.16,9.24,8.99,13.28c1.82,4.03,2.51,7.96,2.04,11.79
				c-0.46,3.82-2.1,7.65-4.92,11.49c-2.82,3.84-6.78,7.97-11.9,12.4c-5.62,4.86-10.67,8.35-15.15,10.47
				c-4.48,2.12-8.75,2.96-12.81,2.53c-4.06-0.43-8.1-2.12-12.12-5.04c-4.02-2.93-8.33-7.05-12.93-12.36
				c-3.47-4.01-6.33-7.47-8.56-10.35c-2.24-2.89-3.98-5.51-5.22-7.85c-1.24-2.35-2.14-4.55-2.7-6.61c-0.56-2.06-0.8-4.27-0.72-6.61
				c0.07-3.57,0.51-6.67,1.31-9.29c0.8-2.63,1.25-5.29,1.35-8.01c0.07-0.94,0.02-1.86-0.15-2.76c-0.17-0.91-0.7-2.07-1.58-3.5
				c-0.88-1.43-2.21-3.22-3.99-5.37c-1.77-2.15-4.18-4.98-7.22-8.49L592.73,487.74z M564.98,452.01l19.66,22.72l-23.63,20.44
				l-19.66-22.72L564.98,452.01z"/>
		</g>
	</g>
	<g>
		<g>
			<path class="st1" d="M834.77,482.13c0-1.8,1.46-3.26,3.26-3.26c1.8,0,3.26,1.46,3.26,3.26c0,1.8-1.46,3.26-3.26,3.26
				C836.23,485.39,834.77,483.93,834.77,482.13z"/>
			<path class="st1" d="M819.73,482.13c0-1.8,1.46-3.26,3.26-3.26c1.8,0,3.26,1.46,3.26,3.26c0,1.8-1.46,3.26-3.26,3.26
				C821.19,485.39,819.73,483.93,819.73,482.13z"/>
		</g>
		<g>
			<path class="st1" d="M834.77,463.96c0-1.8,1.46-3.26,3.26-3.26c1.8,0,3.26,1.46,3.26,3.26c0,1.8-1.46,3.26-3.26,3.26
				C836.23,467.22,834.77,465.76,834.77,463.96z"/>
			<path class="st1" d="M819.73,463.96c0-1.8,1.46-3.26,3.26-3.26c1.8,0,3.26,1.46,3.26,3.26c0,1.8-1.46,3.26-3.26,3.26
				C821.19,467.22,819.73,465.76,819.73,463.96z"/>
		</g>
	</g>
	<g>
		<g>
			<path class="st1" d="M365.16,503.61c0-1.8,1.46-3.26,3.26-3.26s3.26,1.46,3.26,3.26c0,1.8-1.46,3.26-3.26,3.26
				S365.16,505.41,365.16,503.61z"/>
			<path class="st1" d="M350.12,503.61c0-1.8,1.46-3.26,3.26-3.26c1.8,0,3.26,1.46,3.26,3.26c0,1.8-1.46,3.26-3.26,3.26
				C351.58,506.87,350.12,505.41,350.12,503.61z"/>
		</g>
		<g>
			<path class="st1" d="M365.16,485.43c0-1.8,1.46-3.26,3.26-3.26s3.26,1.46,3.26,3.26c0,1.8-1.46,3.26-3.26,3.26
				S365.16,487.23,365.16,485.43z"/>
			<path class="st1" d="M350.12,485.43c0-1.8,1.46-3.26,3.26-3.26c1.8,0,3.26,1.46,3.26,3.26c0,1.8-1.46,3.26-3.26,3.26
				C351.58,488.69,350.12,487.23,350.12,485.43z"/>
		</g>
		<g>
			<path class="st1" d="M365.16,467.25c0-1.8,1.46-3.26,3.26-3.26s3.26,1.46,3.26,3.26s-1.46,3.26-3.26,3.26
				S365.16,469.05,365.16,467.25z"/>
			<path class="st1" d="M350.12,467.25c0-1.8,1.46-3.26,3.26-3.26c1.8,0,3.26,1.46,3.26,3.26s-1.46,3.26-3.26,3.26
				C351.58,470.51,350.12,469.05,350.12,467.25z"/>
		</g>
	</g>
	<g>
		<path class="st1" d="M633.81,454.74c0,1.8-1.46,3.26-3.26,3.26c-1.8,0-3.26-1.46-3.26-3.26c0-1.8,1.46-3.26,3.26-3.26
			C632.35,451.48,633.81,452.93,633.81,454.74z"/>
		<path class="st1" d="M648.85,454.74c0,1.8-1.46,3.26-3.26,3.26c-1.8,0-3.26-1.46-3.26-3.26c0-1.8,1.46-3.26,3.26-3.26
			C647.39,451.48,648.85,452.93,648.85,454.74z"/>
	</g>
	<g>
		<g>
			<path class="st1" d="M715.02,596.92c1.8,0,3.26,1.46,3.26,3.26c0,1.8-1.46,3.26-3.26,3.26c-1.8,0-3.26-1.46-3.26-3.26
				C711.76,598.38,713.22,596.92,715.02,596.92z"/>
			<path class="st1" d="M715.02,581.89c1.8,0,3.26,1.46,3.26,3.26c0,1.8-1.46,3.26-3.26,3.26c-1.8,0-3.26-1.46-3.26-3.26
				C711.76,583.35,713.22,581.89,715.02,581.89z"/>
		</g>
	</g>
	<g>
		<g>
			<path class="st1" d="M715.02,596.92c1.8,0,3.26,1.46,3.26,3.26c0,1.8-1.46,3.26-3.26,3.26c-1.8,0-3.26-1.46-3.26-3.26
				C711.76,598.38,713.22,596.92,715.02,596.92z"/>
			<path class="st1" d="M715.02,581.89c1.8,0,3.26,1.46,3.26,3.26c0,1.8-1.46,3.26-3.26,3.26c-1.8,0-3.26-1.46-3.26-3.26
				C711.76,583.35,713.22,581.89,715.02,581.89z"/>
		</g>
	</g>
	<g>
		<g>
			<path class="st1" d="M715.02,567.72c1.8,0,3.26,1.46,3.26,3.26c0,1.8-1.46,3.26-3.26,3.26c-1.8,0-3.26-1.46-3.26-3.26
				C711.76,569.18,713.22,567.72,715.02,567.72z"/>
			<path class="st1" d="M715.02,552.68c1.8,0,3.26,1.46,3.26,3.26c0,1.8-1.46,3.26-3.26,3.26c-1.8,0-3.26-1.46-3.26-3.26
				C711.76,554.14,713.22,552.68,715.02,552.68z"/>
		</g>
	</g>
	<g>
		<g>
			<path class="st1" d="M519.58,291.8c-1.8,0-3.26-1.46-3.26-3.26s1.46-3.26,3.26-3.26c1.8,0,3.26,1.46,3.26,3.26
				S521.38,291.8,519.58,291.8z"/>
			<path class="st1" d="M519.58,277.06c-1.8,0-3.26-1.46-3.26-3.26s1.46-3.26,3.26-3.26c1.8,0,3.26,1.46,3.26,3.26
				S521.38,277.06,519.58,277.06z"/>
			<path class="st1" d="M519.58,306.84c-1.8,0-3.26-1.46-3.26-3.26c0-1.8,1.46-3.26,3.26-3.26c1.8,0,3.26,1.46,3.26,3.26
				C522.84,305.38,521.38,306.84,519.58,306.84z"/>
		</g>
	</g>
	<path class="st1" d="M694.13,317.48c0-1.8,1.28-2.54,2.84-1.64l7.64,4.41c1.56,0.9,1.56,2.37,0,3.28l-7.64,4.41
		c-1.56,0.9-2.84,0.16-2.84-1.64V317.48z"/>
	<path class="st1" d="M517.26,564.78c0-1.8,1.28-2.54,2.84-1.64l7.64,4.41c1.56,0.9,1.56,2.37,0,3.28l-7.64,4.41
		c-1.56,0.9-2.84,0.16-2.84-1.64V564.78z"/>
	<g>
		<g class="st3">
			
				<pattern  id="SVGID_3_" xlink:href="#Unnamed_Pattern_2" patternTransform="matrix(1.0918 0 0 1.0918 740.8022 631.8977)"  class="st3">
			</pattern>
			<path class="st9" d="M587.95,172.75c1.36,2.42,2.9,5.69,4.61,9.81c1.71,4.12,3.57,8.57,5.57,13.37
				c2.49,5.99,3.3,11.41,2.42,16.26c-0.88,4.85-3.23,10.7-7.05,17.57c-1.58,2.94-2.82,5.35-3.72,7.22
				c-0.89,1.86-1.36,3.69-1.41,5.47c-0.05,1.78,0.3,3.78,1.06,6.02c0.76,2.23,1.88,5.15,3.38,8.74c2.18,5.24,4.29,8.62,6.33,10.15
				c2.04,1.52,5.23,1.38,9.57-0.43c4.35-1.81,6.73-3.99,7.16-6.54c0.43-2.55-0.44-6.45-2.63-11.69c-0.87-2.1-1.48-3.56-1.82-4.38
				c-0.34-0.82-0.84-1.81-1.49-2.94l29.43-12.25c1.47,1.85,2.88,4.07,4.23,6.67c1.35,2.6,2.99,6.22,4.92,10.87
				c2.99,7.19,4.78,13.47,5.35,18.86c0.57,5.38-0.14,10.21-2.15,14.47c-2,4.26-5.38,8.08-10.12,11.46
				c-4.74,3.38-10.93,6.66-18.57,9.84c-8.39,3.49-15.59,5.61-21.6,6.36c-6.02,0.75-11.3,0.09-15.84-1.97
				c-4.55-2.06-8.6-5.56-12.15-10.49c-3.55-4.94-6.98-11.37-10.28-19.31c-2.49-5.99-4.49-11.09-5.98-15.3
				c-1.49-4.21-2.51-7.92-3.05-11.12c-0.54-3.2-0.74-6.11-0.6-8.71c0.14-2.61,0.71-5.26,1.7-7.95c1.45-4.12,3.14-7.55,5.08-10.28
				c1.94-2.74,3.48-5.67,4.64-8.79c0.44-1.06,0.73-2.15,0.88-3.27c0.15-1.12-0.01-2.68-0.49-4.67c-0.48-2-1.34-4.58-2.57-7.76
				c-1.23-3.18-2.94-7.39-5.13-12.63L587.95,172.75z M569.41,120.64l14.12,33.92l-35.27,14.68l-14.12-33.92L569.41,120.64z"/>
		</g>
		<path class="st10" d="M600.68,175.82c1.36,2.42,2.9,5.69,4.61,9.81c1.71,4.12,3.57,8.57,5.57,13.37
			c2.49,5.99,3.3,11.41,2.42,16.26c-0.88,4.85-3.23,10.7-7.05,17.57c-1.58,2.94-2.82,5.35-3.72,7.22c-0.89,1.86-1.36,3.69-1.41,5.47
			c-0.05,1.78,0.3,3.78,1.06,6.02c0.76,2.23,1.88,5.15,3.38,8.74c2.18,5.24,4.29,8.62,6.33,10.15c2.04,1.52,5.23,1.38,9.57-0.43
			c4.35-1.81,6.73-3.99,7.16-6.54c0.43-2.55-0.44-6.45-2.63-11.69c-0.87-2.1-1.48-3.56-1.82-4.38c-0.34-0.82-0.84-1.81-1.49-2.94
			l29.43-12.25c1.47,1.85,2.88,4.07,4.23,6.67c1.35,2.6,2.99,6.22,4.92,10.87c2.99,7.19,4.78,13.47,5.35,18.86
			c0.57,5.38-0.14,10.21-2.15,14.47c-2,4.26-5.38,8.08-10.12,11.46c-4.74,3.38-10.93,6.66-18.57,9.84
			c-8.39,3.49-15.59,5.61-21.6,6.36c-6.02,0.75-11.3,0.09-15.84-1.97s-8.6-5.56-12.15-10.49c-3.55-4.94-6.98-11.37-10.28-19.31
			c-2.49-5.99-4.49-11.09-5.98-15.3c-1.49-4.21-2.51-7.92-3.05-11.12c-0.54-3.2-0.74-6.11-0.6-8.71c0.14-2.61,0.71-5.26,1.7-7.95
			c1.45-4.12,3.14-7.55,5.08-10.28c1.94-2.74,3.48-5.67,4.64-8.79c0.44-1.06,0.73-2.15,0.88-3.27c0.15-1.12-0.01-2.68-0.49-4.67
			c-0.48-2-1.34-4.58-2.57-7.76c-1.23-3.18-2.94-7.39-5.13-12.63L600.68,175.82z M582.14,123.71l14.12,33.92L561,172.31
			l-14.12-33.92L582.14,123.71z"/>
	</g>
	<path class="st1" d="M511.03,181.42c-1.8,0-2.54-1.28-1.64-2.84l4.41-7.64c0.9-1.56,2.37-1.56,3.28,0l4.41,7.64
		c0.9,1.56,0.16,2.84-1.64,2.84H511.03z"/>
	<g>
		<g class="st3">
			<path class="st1" d="M1087.74,395.12c-3.37,2.93-8.02,6.41-13.95,10.45c-5.93,4.04-12.34,8.41-19.24,13.11
				c-8.62,5.87-16.89,8.91-24.81,9.1c-7.92,0.19-17.9-1.6-29.95-5.39c-5.15-1.54-9.34-2.71-12.57-3.51
				c-3.22-0.8-6.25-0.95-9.07-0.45c-2.81,0.5-5.86,1.71-9.13,3.62c-3.27,1.92-7.49,4.64-12.67,8.16
				c-7.54,5.14-12.18,9.57-13.92,13.28c-1.73,3.71-0.47,8.69,3.79,14.94c4.26,6.25,8.47,9.3,12.63,9.15
				c4.16-0.15,10.01-2.8,17.55-7.94c3.02-2.06,5.12-3.49,6.3-4.3c1.19-0.81,2.57-1.91,4.14-3.3l28.87,42.35
				c-2.43,2.92-5.47,5.86-9.13,8.83c-3.66,2.97-8.83,6.73-15.51,11.28c-10.35,7.05-19.66,11.91-27.96,14.56
				c-8.29,2.65-16.12,3.1-23.48,1.33c-7.36-1.77-14.47-5.84-21.34-12.21c-6.86-6.37-14.05-15.05-21.54-26.04
				c-8.23-12.07-13.91-22.72-17.04-31.95c-3.13-9.23-3.82-17.76-2.05-25.59c1.76-7.83,5.96-15.34,12.57-22.54
				c6.62-7.19,15.64-14.69,27.06-22.47c8.62-5.88,16.01-10.67,22.15-14.39c6.15-3.72,11.65-6.52,16.52-8.42
				c4.86-1.9,9.38-3.15,13.53-3.77c4.16-0.62,8.52-0.6,13.08,0.08c6.96,0.94,12.91,2.49,17.85,4.65c4.95,2.16,10.06,3.64,15.35,4.45
				c1.82,0.34,3.62,0.45,5.43,0.32c1.81-0.12,4.21-0.89,7.19-2.3c2.99-1.4,6.78-3.59,11.38-6.57c4.6-2.97,10.67-7.04,18.22-12.18
				L1087.74,395.12z M1163.77,348.97l-48.82,33.28l-34.6-50.76l48.82-33.28L1163.77,348.97z"/>
		</g>
		<g>
			<path class="st6" d="M1087.05,416.17c-3.37,2.93-8.02,6.41-13.95,10.45c-5.93,4.04-12.34,8.41-19.24,13.11
				c-8.62,5.87-16.89,8.91-24.81,9.1c-7.92,0.19-17.9-1.6-29.95-5.39c-5.15-1.54-9.34-2.71-12.57-3.51
				c-3.22-0.8-6.25-0.95-9.07-0.45c-2.81,0.5-5.86,1.71-9.13,3.62c-3.27,1.92-7.49,4.64-12.67,8.16
				c-7.54,5.14-12.18,9.57-13.92,13.28c-1.73,3.71-0.47,8.69,3.79,14.94c4.26,6.25,8.47,9.3,12.63,9.15
				c4.16-0.15,10.01-2.8,17.55-7.94c3.02-2.06,5.12-3.49,6.3-4.3c1.19-0.81,2.57-1.91,4.14-3.3l28.87,42.35
				c-2.43,2.92-5.47,5.86-9.13,8.83c-3.66,2.97-8.83,6.73-15.51,11.28c-10.35,7.05-19.66,11.91-27.96,14.56
				c-8.29,2.65-16.12,3.1-23.48,1.33c-7.36-1.77-14.47-5.84-21.34-12.21c-6.86-6.37-14.05-15.05-21.54-26.04
				c-8.23-12.07-13.91-22.72-17.04-31.95c-3.13-9.23-3.82-17.76-2.05-25.59c1.76-7.83,5.96-15.34,12.57-22.54
				c6.63-7.19,15.64-14.69,27.06-22.47c8.62-5.88,16.01-10.67,22.15-14.39c6.15-3.72,11.65-6.52,16.52-8.42
				c4.86-1.9,9.38-3.15,13.53-3.77c4.16-0.62,8.52-0.6,13.08,0.08c6.96,0.94,12.91,2.49,17.85,4.65c4.95,2.16,10.06,3.64,15.35,4.45
				c1.82,0.34,3.62,0.45,5.43,0.32c1.81-0.12,4.21-0.89,7.19-2.3c2.99-1.4,6.78-3.59,11.38-6.57c4.6-2.97,10.67-7.04,18.22-12.18
				L1087.05,416.17z M1163.08,370.02l-48.82,33.28l-34.6-50.76l48.82-33.28L1163.08,370.02z"/>
		</g>
	</g>
	<g>
		<g class="st3">
			
				<pattern  id="SVGID_4_" xlink:href="#Unnamed_Pattern_2" patternTransform="matrix(1.0918 0 0 1.0918 740.8022 631.8977)"  class="st3">
			</pattern>
			<path class="st11" d="M295.92,99.34c-0.75,2.67-1.98,6.07-3.68,10.2c-1.7,4.12-3.54,8.58-5.52,13.39
				c-2.47,6-5.74,10.4-9.79,13.21c-4.05,2.8-9.85,5.28-17.41,7.43c-3.2,0.96-5.78,1.78-7.73,2.47c-1.95,0.69-3.57,1.64-4.87,2.86
				c-1.29,1.22-2.46,2.89-3.51,5c-1.04,2.11-2.31,4.97-3.8,8.57c-2.16,5.25-3.06,9.13-2.7,11.65c0.37,2.52,2.72,4.68,7.07,6.47
				c4.35,1.79,7.58,1.94,9.69,0.44c2.11-1.5,4.25-4.87,6.41-10.12c0.87-2.1,1.47-3.56,1.81-4.39c0.34-0.83,0.68-1.87,1.03-3.13
				l29.47,12.15c-0.26,2.35-0.84,4.92-1.73,7.71c-0.89,2.79-2.29,6.51-4.21,11.16c-2.97,7.2-6.15,12.9-9.56,17.12
				c-3.4,4.21-7.32,7.12-11.75,8.71c-4.43,1.6-9.51,1.91-15.26,0.95c-5.74-0.96-12.44-3.02-20.09-6.18
				c-8.4-3.46-14.99-7.06-19.77-10.78c-4.78-3.73-8.05-7.92-9.81-12.6c-1.76-4.67-2.15-10.01-1.17-16.01
				c0.99-6,3.11-12.98,6.39-20.92c2.47-6,4.67-11.02,6.6-15.05c1.93-4.03,3.83-7.37,5.71-10.02c1.88-2.65,3.8-4.84,5.74-6.58
				c1.95-1.74,4.22-3.22,6.82-4.42c3.94-1.89,7.56-3.11,10.86-3.68c3.31-0.57,6.47-1.54,9.5-2.93c1.06-0.44,2.04-1,2.93-1.69
				c0.9-0.68,1.88-1.9,2.95-3.65c1.08-1.75,2.3-4.19,3.67-7.3c1.38-3.12,3.14-7.3,5.31-12.55L295.92,99.34z M319.67,49.39l-14,33.97
				L270.35,68.8l14-33.97L319.67,49.39z"/>
		</g>
		<path class="st12" d="M302.75,110.52c-0.75,2.67-1.98,6.07-3.68,10.2c-1.7,4.12-3.54,8.58-5.52,13.39
			c-2.47,6-5.74,10.4-9.79,13.21c-4.05,2.8-9.85,5.28-17.41,7.43c-3.2,0.96-5.78,1.78-7.73,2.47c-1.95,0.69-3.57,1.64-4.87,2.86
			c-1.29,1.22-2.46,2.89-3.51,5c-1.04,2.11-2.31,4.97-3.8,8.57c-2.16,5.25-3.06,9.13-2.7,11.65c0.37,2.52,2.72,4.68,7.07,6.47
			c4.35,1.79,7.58,1.94,9.69,0.44c2.11-1.5,4.25-4.87,6.41-10.12c0.87-2.1,1.47-3.56,1.81-4.39c0.34-0.83,0.68-1.87,1.03-3.13
			l29.47,12.15c-0.26,2.35-0.84,4.92-1.73,7.71c-0.89,2.79-2.29,6.51-4.21,11.16c-2.97,7.2-6.15,12.9-9.56,17.12
			c-3.4,4.21-7.32,7.12-11.75,8.71c-4.43,1.6-9.51,1.91-15.26,0.95c-5.74-0.96-12.44-3.02-20.09-6.18
			c-8.4-3.46-14.99-7.06-19.77-10.78c-4.78-3.73-8.05-7.92-9.81-12.6c-1.76-4.67-2.15-10.01-1.17-16.01
			c0.99-6,3.11-12.98,6.39-20.92c2.47-6,4.67-11.02,6.6-15.05c1.93-4.03,3.83-7.37,5.71-10.02c1.88-2.65,3.8-4.84,5.74-6.58
			c1.95-1.74,4.22-3.22,6.82-4.42c3.94-1.89,7.56-3.11,10.86-3.68c3.31-0.57,6.47-1.54,9.5-2.93c1.06-0.44,2.04-1,2.93-1.69
			c0.9-0.68,1.88-1.9,2.95-3.65c1.08-1.75,2.3-4.19,3.67-7.3c1.38-3.12,3.14-7.3,5.31-12.55L302.75,110.52z M326.5,60.56l-14,33.97
			l-35.32-14.56l14-33.97L326.5,60.56z"/>
	</g>
	<g>
		<g class="st3">
			
				<pattern  id="SVGID_5_" xlink:href="#Unnamed_Pattern_2" patternTransform="matrix(1.0918 0 0 1.0918 740.8022 631.8977)"  class="st3">
			</pattern>
			<path class="st13" d="M1048.08,310.6c-2.72-0.56-6.19-1.56-10.42-2.97c-4.23-1.41-8.81-2.94-13.73-4.59
				c-6.15-2.06-10.77-5.01-13.84-8.86c-3.07-3.85-5.94-9.47-8.61-16.86c-1.18-3.13-2.18-5.64-3-7.54c-0.82-1.9-1.88-3.45-3.19-4.66
				c-1.3-1.21-3.05-2.26-5.23-3.16c-2.18-0.9-5.12-1.97-8.81-3.2c-5.38-1.8-9.32-2.43-11.81-1.89c-2.49,0.54-4.48,3.04-5.97,7.5
				c-1.49,4.46-1.42,7.7,0.22,9.7c1.64,2,5.15,3.9,10.54,5.7c2.16,0.72,3.66,1.22,4.5,1.5c0.85,0.28,1.91,0.55,3.19,0.81
				l-10.1,30.23c-2.36-0.1-4.96-0.5-7.81-1.2c-2.85-0.7-6.65-1.84-11.42-3.43c-7.39-2.47-13.29-5.25-17.73-8.36
				c-4.43-3.11-7.6-6.81-9.49-11.13c-1.9-4.31-2.56-9.36-1.99-15.16c0.57-5.79,2.16-12.62,4.79-20.47
				c2.88-8.62,6.02-15.44,9.4-20.46c3.39-5.02,7.35-8.57,11.9-10.65s9.84-2.83,15.89-2.26c6.05,0.57,13.16,2.22,21.31,4.94
				c6.16,2.06,11.31,3.91,15.46,5.55c4.16,1.65,7.62,3.31,10.38,5.01c2.77,1.69,5.09,3.46,6.96,5.28c1.87,1.82,3.5,3.99,4.88,6.51
				c2.15,3.8,3.62,7.33,4.42,10.58c0.79,3.26,1.98,6.35,3.57,9.27c0.51,1.03,1.14,1.96,1.88,2.81c0.74,0.85,2.03,1.75,3.85,2.7
				c1.82,0.95,4.33,2.01,7.54,3.16c3.2,1.16,7.5,2.64,12.89,4.43L1048.08,310.6z M1099.54,330.87l-34.85-11.65l12.11-36.23
				l34.85,11.65L1099.54,330.87z"/>
		</g>
		<path class="st10" d="M1037.4,318.18c-2.72-0.56-6.19-1.56-10.42-2.97c-4.23-1.41-8.81-2.94-13.73-4.59
			c-6.15-2.06-10.77-5.01-13.84-8.86c-3.07-3.85-5.94-9.47-8.61-16.86c-1.18-3.13-2.18-5.64-3-7.54c-0.82-1.9-1.88-3.45-3.19-4.66
			c-1.3-1.21-3.05-2.26-5.23-3.16c-2.18-0.9-5.12-1.97-8.81-3.2c-5.38-1.8-9.32-2.43-11.81-1.89c-2.49,0.54-4.48,3.04-5.97,7.5
			c-1.49,4.46-1.42,7.7,0.22,9.7c1.64,2,5.15,3.9,10.54,5.7c2.16,0.72,3.66,1.22,4.5,1.5c0.85,0.28,1.91,0.55,3.19,0.81l-10.1,30.23
			c-2.36-0.1-4.96-0.5-7.81-1.2c-2.85-0.7-6.65-1.84-11.42-3.43c-7.39-2.47-13.29-5.25-17.73-8.36c-4.43-3.11-7.6-6.81-9.49-11.13
			c-1.9-4.31-2.56-9.36-1.99-15.16c0.57-5.79,2.16-12.62,4.79-20.47c2.88-8.62,6.02-15.44,9.4-20.46c3.39-5.02,7.35-8.57,11.9-10.65
			c4.54-2.07,9.84-2.83,15.89-2.26c6.05,0.57,13.16,2.22,21.31,4.94c6.16,2.06,11.31,3.91,15.46,5.55
			c4.16,1.65,7.62,3.31,10.38,5.01c2.77,1.69,5.09,3.46,6.96,5.28c1.87,1.82,3.5,3.99,4.88,6.51c2.15,3.8,3.62,7.33,4.42,10.58
			c0.79,3.26,1.98,6.35,3.57,9.27c0.51,1.03,1.14,1.96,1.88,2.81c0.74,0.85,2.03,1.75,3.85,2.7c1.82,0.95,4.33,2.01,7.54,3.16
			c3.2,1.16,7.5,2.64,12.89,4.43L1037.4,318.18z M1088.86,338.45l-34.85-11.65l12.11-36.23l34.85,11.65L1088.86,338.45z"/>
	</g>
	<g>
		<g class="st3">
			
				<pattern  id="SVGID_6_" xlink:href="#Unnamed_Pattern_2" patternTransform="matrix(1.0918 0 0 1.0918 740.8022 631.8977)"  class="st3">
			</pattern>
			<path class="st14" d="M1020.24,629.5c3.42,1.9,7.67,4.69,12.77,8.36c5.1,3.67,10.61,7.65,16.54,11.93
				c7.41,5.34,12.38,11.25,14.9,17.72c2.52,6.47,4.02,15.22,4.5,26.28c0.27,4.7,0.56,8.5,0.86,11.4c0.3,2.89,1.08,5.43,2.34,7.6
				c1.25,2.17,3.15,4.31,5.71,6.44c2.55,2.12,6.05,4.79,10.5,8c6.49,4.68,11.52,7.18,15.09,7.5c3.57,0.32,7.3-2.21,11.17-7.58
				c3.88-5.38,5.13-9.76,3.77-13.13c-1.36-3.38-5.29-7.41-11.78-12.09c-2.6-1.87-4.4-3.18-5.42-3.91c-1.02-0.74-2.34-1.55-3.95-2.43
				l26.26-36.42c3.13,1.13,6.46,2.76,10,4.89c3.54,2.13,8.18,5.26,13.92,9.41c8.9,6.42,15.67,12.64,20.34,18.68
				c4.66,6.04,7.36,12.35,8.1,18.94c0.74,6.59-0.49,13.66-3.68,21.22c-3.2,7.55-8.2,16.06-15.02,25.51
				c-7.48,10.38-14.56,18.23-21.22,23.57c-6.67,5.33-13.48,8.44-20.46,9.33c-6.98,0.89-14.42-0.33-22.32-3.63
				c-7.9-3.31-16.76-8.5-26.59-15.58c-7.41-5.35-13.57-10-18.46-13.95c-4.9-3.96-8.85-7.65-11.86-11.09
				c-3.01-3.44-5.4-6.78-7.15-10.01c-1.75-3.24-3.03-6.84-3.84-10.79c-1.3-6.01-1.8-11.37-1.5-16.08c0.3-4.72,0-9.37-0.91-13.97
				c-0.26-1.6-0.71-3.12-1.35-4.57c-0.64-1.45-1.99-3.2-4.04-5.24c-2.05-2.05-4.99-4.51-8.81-7.41c-3.82-2.9-8.98-6.69-15.47-11.37
				L1020.24,629.5z M959.54,580.65l41.98,30.27l-31.47,43.65l-41.98-30.27L959.54,580.65z"/>
		</g>
		<path class="st10" d="M1037.78,623.78c3.42,1.9,7.67,4.69,12.77,8.36c5.1,3.67,10.61,7.65,16.54,11.93
			c7.41,5.34,12.38,11.25,14.9,17.72c2.52,6.47,4.02,15.22,4.5,26.28c0.27,4.7,0.56,8.5,0.86,11.4c0.3,2.89,1.08,5.43,2.34,7.6
			c1.25,2.17,3.15,4.31,5.71,6.44c2.55,2.12,6.05,4.79,10.5,8c6.49,4.68,11.52,7.18,15.09,7.5c3.57,0.32,7.3-2.21,11.17-7.58
			c3.88-5.38,5.13-9.76,3.77-13.13c-1.36-3.38-5.29-7.41-11.78-12.09c-2.6-1.87-4.4-3.18-5.42-3.91c-1.02-0.74-2.34-1.55-3.95-2.43
			l26.26-36.42c3.13,1.13,6.46,2.76,10,4.89c3.54,2.13,8.18,5.26,13.92,9.41c8.9,6.42,15.67,12.64,20.34,18.68
			c4.66,6.04,7.36,12.35,8.1,18.94c0.74,6.59-0.49,13.66-3.68,21.22c-3.2,7.55-8.2,16.06-15.02,25.51
			c-7.48,10.38-14.56,18.23-21.22,23.57c-6.67,5.33-13.48,8.44-20.46,9.33c-6.98,0.89-14.42-0.33-22.32-3.63
			c-7.9-3.31-16.76-8.5-26.59-15.58c-7.41-5.35-13.57-10-18.46-13.95c-4.9-3.96-8.85-7.65-11.86-11.09
			c-3.01-3.44-5.4-6.78-7.15-10.01c-1.75-3.24-3.03-6.84-3.84-10.79c-1.3-6.01-1.8-11.37-1.5-16.08c0.3-4.72,0-9.37-0.91-13.97
			c-0.26-1.6-0.71-3.12-1.35-4.57c-0.64-1.45-1.99-3.2-4.04-5.24c-2.05-2.05-4.99-4.51-8.81-7.41c-3.82-2.9-8.98-6.69-15.47-11.37
			L1037.78,623.78z M977.07,574.94l41.98,30.27l-31.47,43.65l-41.98-30.27L977.07,574.94z"/>
	</g>
	<path class="st1" d="M956.57,161.58c1.8,0,2.54,1.28,1.64,2.84l-4.41,7.64c-0.9,1.56-2.37,1.56-3.28,0l-4.41-7.64
		c-0.9-1.56-0.16-2.84,1.64-2.84H956.57z"/>
	<path class="st1" d="M270.83,469.11c-1.8,0-2.54-1.28-1.64-2.84l4.41-7.64c0.9-1.56,2.37-1.56,3.28,0l4.41,7.64
		c0.9,1.56,0.16,2.84-1.64,2.84H270.83z"/>
	<g>
		<g class="st3">
			
				<pattern  id="SVGID_7_" xlink:href="#Unnamed_Pattern_2" patternTransform="matrix(1.0918 0 0 1.0918 740.8022 631.8977)"  class="st3">
			</pattern>
			<path class="st15" d="M82.07,395.49c2.72,0.56,6.19,1.55,10.43,2.97c4.23,1.41,8.81,2.94,13.73,4.58
				c6.15,2.05,10.77,5.01,13.85,8.86c3.08,3.85,5.95,9.47,8.61,16.86c1.18,3.13,2.18,5.64,3,7.54c0.82,1.9,1.88,3.45,3.19,4.66
				c1.31,1.21,3.05,2.26,5.23,3.16c2.18,0.9,5.12,1.96,8.81,3.2c5.38,1.8,9.32,2.43,11.81,1.89c2.49-0.54,4.48-3.04,5.97-7.5
				c1.49-4.46,1.42-7.7-0.23-9.7c-1.64-2-5.15-3.9-10.54-5.7c-2.16-0.72-3.66-1.22-4.5-1.5c-0.85-0.28-1.91-0.55-3.19-0.81
				l10.09-30.24c2.36,0.1,4.96,0.5,7.81,1.2c2.85,0.69,6.65,1.84,11.43,3.43c7.39,2.47,13.3,5.25,17.73,8.36
				c4.44,3.1,7.6,6.81,9.5,11.12c1.9,4.31,2.56,9.36,1.99,15.16c-0.57,5.8-2.16,12.62-4.78,20.47c-2.88,8.62-6.01,15.44-9.4,20.46
				c-3.39,5.02-7.35,8.58-11.89,10.65c-4.54,2.08-9.84,2.83-15.89,2.26c-6.05-0.57-13.16-2.21-21.31-4.93
				c-6.16-2.05-11.31-3.9-15.46-5.55c-4.16-1.64-7.62-3.31-10.39-5.01c-2.77-1.69-5.09-3.45-6.96-5.27c-1.87-1.82-3.5-3.99-4.88-6.5
				c-2.16-3.8-3.63-7.33-4.42-10.58c-0.8-3.26-1.98-6.35-3.57-9.27c-0.51-1.03-1.14-1.96-1.88-2.81c-0.74-0.85-2.03-1.75-3.85-2.69
				c-1.82-0.95-4.33-2-7.54-3.16c-3.2-1.16-7.5-2.63-12.89-4.43L82.07,395.49z M30.6,375.23l34.85,11.63l-12.1,36.24L18.5,411.47
				L30.6,375.23z"/>
		</g>
		<path class="st10" d="M92.75,387.91c2.72,0.56,6.19,1.55,10.43,2.97c4.23,1.41,8.81,2.94,13.73,4.58
			c6.15,2.05,10.77,5.01,13.85,8.86c3.08,3.85,5.95,9.47,8.61,16.86c1.18,3.13,2.18,5.64,3,7.54c0.82,1.9,1.88,3.45,3.19,4.66
			c1.31,1.21,3.05,2.26,5.23,3.16c2.18,0.9,5.12,1.96,8.81,3.2c5.38,1.8,9.32,2.43,11.81,1.89c2.49-0.54,4.48-3.04,5.97-7.5
			c1.49-4.46,1.42-7.7-0.23-9.7c-1.64-2-5.15-3.9-10.54-5.7c-2.16-0.72-3.66-1.22-4.5-1.5c-0.85-0.28-1.91-0.55-3.19-0.81
			l10.09-30.24c2.36,0.1,4.96,0.5,7.81,1.2c2.85,0.69,6.65,1.84,11.43,3.43c7.39,2.47,13.3,5.25,17.73,8.36
			c4.44,3.1,7.6,6.81,9.5,11.12c1.9,4.31,2.56,9.36,1.99,15.16c-0.57,5.8-2.16,12.62-4.78,20.47c-2.88,8.62-6.01,15.44-9.4,20.46
			c-3.39,5.02-7.35,8.58-11.89,10.65c-4.54,2.08-9.84,2.83-15.89,2.26c-6.05-0.57-13.16-2.21-21.31-4.93
			c-6.16-2.05-11.31-3.9-15.46-5.55c-4.16-1.64-7.62-3.31-10.39-5.01c-2.77-1.69-5.09-3.45-6.96-5.27c-1.87-1.82-3.5-3.99-4.88-6.5
			c-2.16-3.8-3.63-7.33-4.42-10.58c-0.8-3.26-1.98-6.35-3.57-9.27c-0.51-1.03-1.14-1.96-1.88-2.81c-0.74-0.85-2.03-1.75-3.85-2.69
			c-1.82-0.95-4.33-2-7.54-3.16c-3.2-1.16-7.5-2.63-12.89-4.43L92.75,387.91z M41.28,367.65l34.85,11.63l-12.1,36.24l-34.85-11.63
			L41.28,367.65z"/>
	</g>
	<g>
		<g class="st3">
			
				<pattern  id="SVGID_8_" xlink:href="#Unnamed_Pattern_2" patternTransform="matrix(1.0918 0 0 1.0918 740.8022 631.8977)"  class="st3">
			</pattern>
			<path class="st16" d="M155.51,267.78c-2.71-0.58-6.18-1.6-10.4-3.04c-4.22-1.44-8.79-3-13.7-4.68
				c-6.14-2.1-10.74-5.08-13.79-8.95c-3.05-3.87-5.88-9.51-8.5-16.91c-1.16-3.13-2.14-5.66-2.95-7.56c-0.81-1.9-1.86-3.46-3.16-4.68
				c-1.3-1.21-3.03-2.28-5.21-3.19c-2.17-0.91-5.1-2-8.79-3.26c-5.37-1.83-9.31-2.49-11.8-1.97c-2.49,0.52-4.5,3.01-6.02,7.46
				c-1.52,4.45-1.47,7.69,0.16,9.7c1.63,2.01,5.13,3.94,10.5,5.77c2.15,0.73,3.65,1.25,4.49,1.53c0.85,0.29,1.91,0.57,3.19,0.83
				l-10.3,30.17c-2.36-0.12-4.96-0.54-7.8-1.25c-2.84-0.71-6.64-1.88-11.4-3.51c-7.37-2.52-13.26-5.34-17.68-8.48
				c-4.41-3.13-7.56-6.86-9.42-11.19c-1.87-4.32-2.5-9.38-1.89-15.17c0.61-5.79,2.25-12.6,4.92-20.43c2.94-8.6,6.12-15.4,9.54-20.4
				c3.42-5,7.41-8.52,11.97-10.57c4.56-2.05,9.86-2.76,15.91-2.15c6.05,0.61,13.14,2.3,21.28,5.08c6.14,2.1,11.28,3.98,15.43,5.65
				c4.15,1.67,7.59,3.36,10.35,5.08c2.76,1.71,5.07,3.49,6.93,5.32c1.86,1.84,3.47,4.01,4.84,6.54c2.13,3.81,3.58,7.35,4.35,10.61
				c0.77,3.27,1.94,6.36,3.51,9.3c0.51,1.03,1.13,1.97,1.86,2.82c0.74,0.85,2.01,1.76,3.83,2.72c1.82,0.97,4.32,2.03,7.52,3.21
				c3.2,1.18,7.48,2.68,12.86,4.52L155.51,267.78z M206.84,288.39l-34.77-11.87l12.34-36.15l34.77,11.87L206.84,288.39z"/>
		</g>
		<path class="st10" d="M144.78,275.29c-2.71-0.58-6.18-1.6-10.4-3.04c-4.22-1.44-8.79-3-13.7-4.68c-6.14-2.1-10.74-5.08-13.79-8.95
			c-3.05-3.87-5.88-9.51-8.5-16.91c-1.16-3.13-2.14-5.66-2.95-7.56c-0.81-1.9-1.86-3.46-3.16-4.68c-1.3-1.21-3.03-2.28-5.21-3.19
			c-2.17-0.91-5.1-2-8.79-3.26c-5.37-1.83-9.31-2.49-11.8-1.97c-2.49,0.52-4.5,3.01-6.02,7.46c-1.52,4.45-1.47,7.69,0.16,9.7
			c1.63,2.01,5.13,3.94,10.5,5.77c2.15,0.73,3.65,1.25,4.49,1.53c0.85,0.29,1.91,0.57,3.19,0.83l-10.3,30.17
			c-2.36-0.12-4.96-0.54-7.8-1.25c-2.84-0.71-6.64-1.88-11.4-3.51c-7.37-2.52-13.26-5.34-17.68-8.48
			c-4.41-3.13-7.56-6.86-9.42-11.19c-1.87-4.32-2.5-9.38-1.89-15.17c0.61-5.79,2.25-12.6,4.92-20.43c2.94-8.6,6.12-15.4,9.54-20.4
			c3.42-5,7.41-8.52,11.97-10.57c4.56-2.05,9.86-2.76,15.91-2.15c6.05,0.61,13.14,2.3,21.28,5.08c6.14,2.1,11.28,3.98,15.43,5.65
			c4.15,1.67,7.59,3.36,10.35,5.08c2.76,1.71,5.07,3.49,6.93,5.32c1.86,1.84,3.47,4.01,4.84,6.54c2.13,3.81,3.58,7.35,4.35,10.61
			c0.77,3.27,1.94,6.36,3.51,9.3c0.51,1.03,1.13,1.97,1.86,2.82c0.74,0.85,2.01,1.76,3.83,2.72c1.82,0.97,4.32,2.03,7.52,3.21
			c3.2,1.18,7.48,2.68,12.86,4.52L144.78,275.29z M196.11,295.9l-34.77-11.87l12.34-36.15l34.77,11.87L196.11,295.9z"/>
	</g>
	<g>
		<g>
			<path class="st1" d="M250.44,278.72c0-1.8,1.46-3.26,3.26-3.26c1.8,0,3.26,1.46,3.26,3.26c0,1.8-1.46,3.26-3.26,3.26
				C251.9,281.98,250.44,280.52,250.44,278.72z"/>
		</g>
		<g>
			<path class="st1" d="M250.44,260.54c0-1.8,1.46-3.26,3.26-3.26c1.8,0,3.26,1.46,3.26,3.26c0,1.8-1.46,3.26-3.26,3.26
				C251.9,263.8,250.44,262.34,250.44,260.54z"/>
		</g>
	</g>
	<g>
		<g>
			<path class="st1" d="M908.17,341.34c1.8,0,3.26,1.46,3.26,3.26c0,1.8-1.46,3.26-3.26,3.26c-1.8,0-3.26-1.46-3.26-3.26
				C904.91,342.8,906.37,341.34,908.17,341.34z"/>
		</g>
		<g>
			<path class="st1" d="M926.34,341.34c1.8,0,3.26,1.46,3.26,3.26c0,1.8-1.46,3.26-3.26,3.26c-1.8,0-3.26-1.46-3.26-3.26
				C923.08,342.8,924.54,341.34,926.34,341.34z"/>
		</g>
	</g>
	<path class="st1" d="M918.68,588.34c0,1.8-1.28,2.54-2.84,1.64l-7.64-4.41c-1.56-0.9-1.56-2.37,0-3.28l7.64-4.41
		c1.56-0.9,2.84-0.16,2.84,1.64V588.34z"/>
</g>
</svg>
